<?xml version="1.0" encoding="utf-8"?>
<!-- Generator: Adobe Illustrator 25.4.1, SVG Export Plug-In . SVG Version: 6.00 Build 0)  -->
<svg version="1.1" id="Capa_1" xmlns="http://www.w3.org/2000/svg" xmlns:xlink="http://www.w3.org/1999/xlink" x="0px" y="0px"
	 viewBox="0 0 263 92" style="enable-background:new 0 0 263 92;" xml:space="preserve">
<style type="text/css">
	.st0{clip-path:url(#SVGID_00000069394530341631429020000010171921449634364065_);fill:#164F9A;}
	.st1{opacity:0.14;clip-path:url(#SVGID_00000069394530341631429020000010171921449634364065_);}
	.st2{fill:#FFFFFF;}
	
		.st3{opacity:0.81;clip-path:url(#SVGID_00000069394530341631429020000010171921449634364065_);fill:url(#SVGID_00000183931672590294398240000004549577631402644630_);}
</style>
<g>
	<defs>
		
			<rect id="SVGID_1_" x="54.86" y="-55.69" transform="matrix(-1.836970e-16 1 -1 -1.836970e-16 208.1429 -54.8571)" width="153.29" height="264.67"/>
	</defs>
	<clipPath id="SVGID_00000057856884631606183310000010937202355658774429_">
		<use xlink:href="#SVGID_1_"  style="overflow:visible;"/>
	</clipPath>
	
		<rect x="55.07" y="-55.76" transform="matrix(-1.836970e-16 1 -1 -1.836970e-16 208.2124 -54.9267)" style="clip-path:url(#SVGID_00000057856884631606183310000010937202355658774429_);fill:#164F9A;" width="153" height="264.81"/>
	<g style="opacity:0.14;clip-path:url(#SVGID_00000057856884631606183310000010937202355658774429_);">
		<path class="st2" d="M231.29,16.33c0,6.28,3.49,11.96,9.12,14.8c0.77,0.39,1.69,0.25,2.31-0.33l10.07-9.48
			c0.01-0.01,0.03-0.03,0.04-0.04c1.48-1.48,2.22-3.5,2.03-5.62c-0.31-3.46-3.21-6.22-6.68-6.37c-4.02-0.18-7.34,3.04-7.34,7.02
			c0,1.46,0.45,2.97,1.25,4.28c0.28,0.45,0.91,0.53,1.3,0.17l1.79-1.64c0.28-0.26,0.35-0.68,0.18-1.02
			c-0.29-0.58-0.45-1.21-0.45-1.79c0-1.83,1.68-3.28,3.58-2.89c1.14,0.24,2.06,1.18,2.27,2.32c0.18,0.99-0.12,1.95-0.79,2.63
			l-8.94,8.42c-3.97-2.59-6.18-7.2-5.56-12.1c0.72-5.7,5.39-10.23,11.11-10.8c7.47-0.75,13.79,5.12,13.79,12.44
			c0,2.23-0.59,4.4-1.71,6.31c-0.23,0.39-0.11,0.88,0.26,1.13l1.96,1.33c0.41,0.28,0.97,0.15,1.22-0.28
			c1.77-2.95,2.57-6.37,2.29-9.87c-0.67-8.26-7.54-14.84-15.82-15.18C239.11-0.62,231.29,6.96,231.29,16.33z"/>
		<path class="st2" d="M242.94,38.01c-0.01,0.01-0.03,0.03-0.04,0.04c-1.48,1.48-2.22,3.5-2.03,5.62c0.31,3.46,3.21,6.22,6.68,6.37
			c4.02,0.18,7.34-3.04,7.34-7.02c0-1.46-0.45-2.97-1.25-4.28c-0.28-0.45-0.91-0.53-1.3-0.17l-1.79,1.64
			c-0.28,0.26-0.35,0.68-0.18,1.02c0.29,0.58,0.45,1.21,0.45,1.79c0,1.83-1.68,3.28-3.58,2.89c-1.14-0.24-2.06-1.18-2.27-2.32
			c-0.18-0.99,0.12-1.95,0.79-2.63l8.94-8.42c3.97,2.59,6.18,7.2,5.56,12.1c-0.72,5.7-5.39,10.23-11.11,10.8
			c-7.47,0.75-13.79-5.12-13.79-12.44c0-2.24,0.59-4.4,1.71-6.31c0.23-0.39,0.11-0.88-0.26-1.13l-1.96-1.33
			c-0.41-0.28-0.97-0.15-1.22,0.28c-1.77,2.95-2.57,6.37-2.29,9.87c0.67,8.26,7.54,14.84,15.82,15.18
			c9.45,0.39,17.27-7.19,17.27-16.56c0-6.28-3.49-11.96-9.12-14.8c-0.77-0.39-1.69-0.25-2.31,0.33L242.94,38.01z"/>
		<path class="st2" d="M231.29,72.19c0,6.28,3.49,11.96,9.12,14.8c0.77,0.39,1.69,0.25,2.31-0.33l10.07-9.48
			c0.01-0.01,0.03-0.03,0.04-0.04c1.48-1.48,2.22-3.5,2.03-5.62c-0.31-3.46-3.21-6.22-6.68-6.37c-4.02-0.18-7.34,3.04-7.34,7.02
			c0,1.46,0.45,2.97,1.25,4.28c0.28,0.45,0.91,0.53,1.3,0.17l1.79-1.64c0.28-0.26,0.35-0.68,0.18-1.02
			c-0.29-0.58-0.45-1.21-0.45-1.79c0-1.83,1.68-3.28,3.58-2.89c1.14,0.24,2.06,1.18,2.27,2.32c0.18,0.99-0.12,1.95-0.79,2.63
			l-8.94,8.42c-3.97-2.59-6.18-7.2-5.56-12.1c0.72-5.7,5.39-10.23,11.11-10.8c7.47-0.75,13.79,5.12,13.79,12.44
			c0,2.23-0.59,4.4-1.71,6.31c-0.23,0.39-0.11,0.88,0.26,1.13l1.96,1.33c0.41,0.28,0.97,0.15,1.22-0.28
			c1.77-2.95,2.57-6.37,2.29-9.87c-0.67-8.26-7.54-14.84-15.82-15.18C239.11,55.24,231.29,62.82,231.29,72.19z"/>
		<path class="st2" d="M242.94,93.87c-0.01,0.01-0.03,0.03-0.04,0.04c-1.48,1.48-2.22,3.5-2.03,5.62c0.31,3.46,3.21,6.22,6.68,6.37
			c4.02,0.18,7.34-3.04,7.34-7.02c0-1.46-0.45-2.97-1.25-4.28c-0.28-0.45-0.91-0.53-1.3-0.17l-1.79,1.64
			c-0.28,0.26-0.35,0.68-0.18,1.02c0.29,0.58,0.45,1.21,0.45,1.79c0,1.83-1.68,3.28-3.58,2.89c-1.14-0.24-2.06-1.18-2.27-2.32
			c-0.18-0.99,0.12-1.95,0.79-2.63l8.94-8.42c3.97,2.59,6.18,7.2,5.56,12.1c-0.72,5.7-5.39,10.23-11.11,10.8
			c-7.47,0.75-13.79-5.12-13.79-12.44c0-2.24,0.59-4.4,1.71-6.31c0.23-0.39,0.11-0.88-0.26-1.13l-1.96-1.33
			c-0.41-0.28-0.97-0.15-1.22,0.28c-1.77,2.95-2.57,6.37-2.29,9.87c0.67,8.26,7.54,14.84,15.82,15.18
			c9.45,0.39,17.27-7.19,17.27-16.56c0-6.28-3.49-11.96-9.12-14.8c-0.77-0.39-1.69-0.25-2.31,0.33L242.94,93.87z"/>
		<path class="st2" d="M198.15,1.34c0,6.28,3.49,11.96,9.12,14.8c0.77,0.39,1.69,0.25,2.31-0.33l10.07-9.48
			c0.01-0.01,0.03-0.03,0.04-0.04c1.48-1.48,2.22-3.5,2.03-5.62c-0.31-3.46-3.21-6.22-6.68-6.37c-4.02-0.18-7.34,3.04-7.34,7.02
			c0,1.46,0.45,2.97,1.25,4.28c0.28,0.45,0.91,0.53,1.3,0.17l1.79-1.64c0.28-0.26,0.35-0.68,0.18-1.02
			c-0.29-0.58-0.45-1.21-0.45-1.79c0-1.83,1.68-3.28,3.58-2.89c1.14,0.24,2.06,1.18,2.27,2.32c0.18,0.99-0.12,1.95-0.79,2.63
			l-8.94,8.42c-3.97-2.59-6.18-7.2-5.56-12.1c0.72-5.7,5.39-10.23,11.11-10.8c7.47-0.75,13.79,5.12,13.79,12.44
			c0,2.23-0.59,4.4-1.71,6.31c-0.23,0.39-0.11,0.88,0.26,1.13l1.96,1.33c0.41,0.28,0.97,0.15,1.22-0.28
			c1.77-2.95,2.57-6.37,2.29-9.87c-0.67-8.26-7.54-14.84-15.82-15.18C205.96-15.61,198.15-8.03,198.15,1.34z"/>
		<path class="st2" d="M209.8,23.01c-0.01,0.01-0.03,0.03-0.04,0.04c-1.48,1.48-2.22,3.5-2.03,5.62c0.31,3.46,3.21,6.22,6.68,6.37
			c4.02,0.18,7.34-3.04,7.34-7.02c0-1.46-0.45-2.97-1.25-4.28c-0.28-0.45-0.91-0.53-1.3-0.17l-1.79,1.64
			c-0.28,0.26-0.35,0.68-0.18,1.02c0.29,0.58,0.45,1.21,0.45,1.79c0,1.83-1.68,3.28-3.58,2.89c-1.14-0.24-2.06-1.18-2.27-2.32
			c-0.18-0.99,0.12-1.95,0.79-2.63l8.94-8.42c3.97,2.59,6.18,7.2,5.56,12.1c-0.72,5.7-5.39,10.23-11.11,10.8
			c-7.47,0.75-13.79-5.12-13.79-12.44c0-2.24,0.59-4.4,1.71-6.31c0.23-0.39,0.11-0.88-0.26-1.13l-1.96-1.33
			c-0.41-0.28-0.97-0.15-1.22,0.28c-1.77,2.95-2.57,6.37-2.29,9.87c0.67,8.26,7.54,14.84,15.82,15.18
			c9.45,0.39,17.27-7.19,17.27-16.56c0-6.28-3.49-11.96-9.12-14.8c-0.77-0.39-1.69-0.25-2.31,0.33L209.8,23.01z"/>
		<path class="st2" d="M198.15,57.2c0,6.28,3.49,11.96,9.12,14.8c0.77,0.39,1.69,0.25,2.31-0.33l10.07-9.48
			c0.01-0.01,0.03-0.03,0.04-0.04c1.48-1.48,2.22-3.5,2.03-5.62c-0.31-3.46-3.21-6.22-6.68-6.37c-4.02-0.18-7.34,3.04-7.34,7.02
			c0,1.46,0.45,2.97,1.25,4.28c0.28,0.45,0.91,0.53,1.3,0.17l1.79-1.64c0.28-0.26,0.35-0.68,0.18-1.02
			c-0.29-0.58-0.45-1.21-0.45-1.79c0-1.83,1.68-3.28,3.58-2.89c1.14,0.24,2.06,1.18,2.27,2.32c0.18,0.99-0.12,1.95-0.79,2.63
			l-8.94,8.42c-3.97-2.59-6.18-7.2-5.56-12.1c0.72-5.7,5.39-10.23,11.11-10.8c7.47-0.75,13.79,5.12,13.79,12.44
			c0,2.23-0.59,4.4-1.71,6.31c-0.23,0.39-0.11,0.88,0.26,1.13l1.96,1.33c0.41,0.28,0.97,0.15,1.22-0.28
			c1.77-2.95,2.57-6.37,2.29-9.87c-0.67-8.26-7.54-14.84-15.82-15.18C205.96,40.25,198.15,47.83,198.15,57.2z"/>
		<path class="st2" d="M209.8,78.88c-0.01,0.01-0.03,0.03-0.04,0.04c-1.48,1.48-2.22,3.5-2.03,5.62c0.31,3.46,3.21,6.22,6.68,6.37
			c4.02,0.18,7.34-3.04,7.34-7.02c0-1.46-0.45-2.97-1.25-4.28c-0.28-0.45-0.91-0.53-1.3-0.17l-1.79,1.64
			c-0.28,0.26-0.35,0.68-0.18,1.02c0.29,0.58,0.45,1.21,0.45,1.79c0,1.83-1.68,3.28-3.58,2.89c-1.14-0.24-2.06-1.18-2.27-2.32
			c-0.18-0.99,0.12-1.95,0.79-2.63l8.94-8.42c3.97,2.59,6.18,7.2,5.56,12.1c-0.72,5.7-5.39,10.23-11.11,10.8
			c-7.47,0.75-13.79-5.12-13.79-12.44c0-2.24,0.59-4.4,1.71-6.31c0.23-0.39,0.11-0.88-0.26-1.13l-1.96-1.33
			c-0.41-0.28-0.97-0.15-1.22,0.28c-1.77,2.95-2.57,6.37-2.29,9.87c0.67,8.26,7.54,14.84,15.82,15.18
			c9.45,0.39,17.27-7.19,17.27-16.56c0-6.28-3.49-11.96-9.12-14.8c-0.77-0.39-1.69-0.25-2.31,0.33L209.8,78.88z"/>
		<path class="st2" d="M164.58,16.33c0,6.28,3.49,11.96,9.12,14.8c0.77,0.39,1.69,0.25,2.31-0.33l10.07-9.48
			c0.01-0.01,0.03-0.03,0.04-0.04c1.48-1.48,2.22-3.5,2.03-5.62c-0.31-3.46-3.21-6.22-6.68-6.37c-4.02-0.18-7.34,3.04-7.34,7.02
			c0,1.46,0.45,2.97,1.25,4.28c0.28,0.45,0.91,0.53,1.3,0.17l1.79-1.64c0.28-0.26,0.35-0.68,0.18-1.02
			c-0.29-0.58-0.45-1.21-0.45-1.79c0-1.83,1.68-3.28,3.58-2.89c1.14,0.24,2.06,1.18,2.27,2.32c0.18,0.99-0.12,1.95-0.79,2.63
			l-8.94,8.42c-3.97-2.59-6.18-7.2-5.56-12.1c0.72-5.7,5.39-10.23,11.11-10.8c7.47-0.75,13.79,5.12,13.79,12.44
			c0,2.23-0.59,4.4-1.71,6.31c-0.23,0.39-0.11,0.88,0.26,1.13l1.96,1.33c0.41,0.28,0.97,0.15,1.22-0.28
			c1.77-2.95,2.57-6.37,2.29-9.87C197,6.69,190.13,0.11,181.85-0.23C172.4-0.62,164.58,6.96,164.58,16.33z"/>
		<path class="st2" d="M176.23,38.01c-0.01,0.01-0.03,0.03-0.04,0.04c-1.48,1.48-2.22,3.5-2.03,5.62c0.31,3.46,3.21,6.22,6.68,6.37
			c4.02,0.18,7.34-3.04,7.34-7.02c0-1.46-0.45-2.97-1.25-4.28c-0.28-0.45-0.91-0.53-1.3-0.17l-1.79,1.64
			c-0.28,0.26-0.35,0.68-0.18,1.02c0.29,0.58,0.45,1.21,0.45,1.79c0,1.83-1.68,3.28-3.58,2.89c-1.14-0.24-2.06-1.18-2.27-2.32
			c-0.18-0.99,0.12-1.95,0.79-2.63l8.94-8.42c3.97,2.59,6.18,7.2,5.56,12.1c-0.72,5.7-5.39,10.23-11.11,10.8
			c-7.47,0.75-13.79-5.12-13.79-12.44c0-2.24,0.59-4.4,1.71-6.31c0.23-0.39,0.11-0.88-0.26-1.13l-1.96-1.33
			c-0.41-0.28-0.97-0.15-1.22,0.28c-1.77,2.95-2.57,6.37-2.29,9.87c0.67,8.26,7.54,14.84,15.82,15.18
			c9.45,0.39,17.27-7.19,17.27-16.56c0-6.28-3.49-11.96-9.12-14.8c-0.77-0.39-1.69-0.25-2.31,0.33L176.23,38.01z"/>
		<path class="st2" d="M164.58,72.19c0,6.28,3.49,11.96,9.12,14.8c0.77,0.39,1.69,0.25,2.31-0.33l10.07-9.48
			c0.01-0.01,0.03-0.03,0.04-0.04c1.48-1.48,2.22-3.5,2.03-5.62c-0.31-3.46-3.21-6.22-6.68-6.37c-4.02-0.18-7.34,3.04-7.34,7.02
			c0,1.46,0.45,2.97,1.25,4.28c0.28,0.45,0.91,0.53,1.3,0.17l1.79-1.64c0.28-0.26,0.35-0.68,0.18-1.02
			c-0.29-0.58-0.45-1.21-0.45-1.79c0-1.83,1.68-3.28,3.58-2.89c1.14,0.24,2.06,1.18,2.27,2.32c0.18,0.99-0.12,1.95-0.79,2.63
			l-8.94,8.42c-3.97-2.59-6.18-7.2-5.56-12.1c0.72-5.7,5.39-10.23,11.11-10.8c7.47-0.75,13.79,5.12,13.79,12.44
			c0,2.23-0.59,4.4-1.71,6.31c-0.23,0.39-0.11,0.88,0.26,1.13l1.96,1.33c0.41,0.28,0.97,0.15,1.22-0.28
			c1.77-2.95,2.57-6.37,2.29-9.87c-0.67-8.26-7.54-14.84-15.82-15.18C172.4,55.24,164.58,62.82,164.58,72.19z"/>
		<path class="st2" d="M176.23,93.87c-0.01,0.01-0.03,0.03-0.04,0.04c-1.48,1.48-2.22,3.5-2.03,5.62c0.31,3.46,3.21,6.22,6.68,6.37
			c4.02,0.18,7.34-3.04,7.34-7.02c0-1.46-0.45-2.97-1.25-4.28c-0.28-0.45-0.91-0.53-1.3-0.17l-1.79,1.64
			c-0.28,0.26-0.35,0.68-0.18,1.02c0.29,0.58,0.45,1.21,0.45,1.79c0,1.83-1.68,3.28-3.58,2.89c-1.14-0.24-2.06-1.18-2.27-2.32
			c-0.18-0.99,0.12-1.95,0.79-2.63l8.94-8.42c3.97,2.59,6.18,7.2,5.56,12.1c-0.72,5.7-5.39,10.23-11.11,10.8
			c-7.47,0.75-13.79-5.12-13.79-12.44c0-2.24,0.59-4.4,1.71-6.31c0.23-0.39,0.11-0.88-0.26-1.13l-1.96-1.33
			c-0.41-0.28-0.97-0.15-1.22,0.28c-1.77,2.95-2.57,6.37-2.29,9.87c0.67,8.26,7.54,14.84,15.82,15.18
			c9.45,0.39,17.27-7.19,17.27-16.56c0-6.28-3.49-11.96-9.12-14.8c-0.77-0.39-1.69-0.25-2.31,0.33L176.23,93.87z"/>
		<path class="st2" d="M131.43,1.34c0,6.28,3.49,11.96,9.12,14.8c0.77,0.39,1.69,0.25,2.31-0.33l10.07-9.48
			c0.01-0.01,0.03-0.03,0.04-0.04c1.48-1.48,2.22-3.5,2.03-5.62c-0.31-3.46-3.21-6.22-6.68-6.37c-4.02-0.18-7.34,3.04-7.34,7.02
			c0,1.46,0.45,2.97,1.25,4.28c0.28,0.45,0.91,0.53,1.3,0.17l1.79-1.64c0.28-0.26,0.35-0.68,0.18-1.02
			c-0.29-0.58-0.45-1.21-0.45-1.79c0-1.83,1.68-3.28,3.58-2.89c1.14,0.24,2.06,1.18,2.27,2.32c0.18,0.99-0.12,1.95-0.79,2.63
			l-8.94,8.42c-3.97-2.59-6.18-7.2-5.56-12.1c0.72-5.7,5.39-10.23,11.11-10.8c7.47-0.75,13.79,5.12,13.79,12.44
			c0,2.23-0.59,4.4-1.71,6.31c-0.23,0.39-0.11,0.88,0.26,1.13l1.96,1.33c0.41,0.28,0.97,0.15,1.22-0.28
			c1.77-2.95,2.57-6.37,2.29-9.87c-0.67-8.26-7.54-14.84-15.82-15.18C139.25-15.61,131.43-8.03,131.43,1.34z"/>
		<path class="st2" d="M143.08,23.01c-0.01,0.01-0.03,0.03-0.04,0.04c-1.48,1.48-2.22,3.5-2.03,5.62c0.31,3.46,3.21,6.22,6.68,6.37
			c4.02,0.18,7.34-3.04,7.34-7.02c0-1.46-0.45-2.97-1.25-4.28c-0.28-0.45-0.91-0.53-1.3-0.17l-1.79,1.64
			c-0.28,0.26-0.35,0.68-0.18,1.02c0.29,0.58,0.45,1.21,0.45,1.79c0,1.83-1.68,3.28-3.58,2.89c-1.14-0.24-2.06-1.18-2.27-2.32
			c-0.18-0.99,0.12-1.95,0.79-2.63l8.94-8.42c3.97,2.59,6.18,7.2,5.56,12.1c-0.72,5.7-5.39,10.23-11.11,10.8
			c-7.47,0.75-13.79-5.12-13.79-12.44c0-2.24,0.59-4.4,1.71-6.31c0.23-0.39,0.11-0.88-0.26-1.13L135,19.23
			c-0.41-0.28-0.97-0.15-1.22,0.28c-1.77,2.95-2.57,6.37-2.29,9.87c0.67,8.26,7.54,14.84,15.82,15.18
			c9.45,0.39,17.27-7.19,17.27-16.56c0-6.28-3.49-11.96-9.12-14.8c-0.77-0.39-1.69-0.25-2.31,0.33L143.08,23.01z"/>
		<path class="st2" d="M131.43,57.2c0,6.28,3.49,11.96,9.12,14.8c0.77,0.39,1.69,0.25,2.31-0.33l10.07-9.48
			c0.01-0.01,0.03-0.03,0.04-0.04c1.48-1.48,2.22-3.5,2.03-5.62c-0.31-3.46-3.21-6.22-6.68-6.37c-4.02-0.18-7.34,3.04-7.34,7.02
			c0,1.46,0.45,2.97,1.25,4.28c0.28,0.45,0.91,0.53,1.3,0.17l1.79-1.64c0.28-0.26,0.35-0.68,0.18-1.02
			c-0.29-0.58-0.45-1.21-0.45-1.79c0-1.83,1.68-3.28,3.58-2.89c1.14,0.24,2.06,1.18,2.27,2.32c0.18,0.99-0.12,1.95-0.79,2.63
			l-8.94,8.42c-3.97-2.59-6.18-7.2-5.56-12.1c0.72-5.7,5.39-10.23,11.11-10.8c7.47-0.75,13.79,5.12,13.79,12.44
			c0,2.23-0.59,4.4-1.71,6.31c-0.23,0.39-0.11,0.88,0.26,1.13l1.96,1.33c0.41,0.28,0.97,0.15,1.22-0.28
			c1.77-2.95,2.57-6.37,2.29-9.87c-0.67-8.26-7.54-14.84-15.82-15.18C139.25,40.25,131.43,47.83,131.43,57.2z"/>
		<path class="st2" d="M143.08,78.88c-0.01,0.01-0.03,0.03-0.04,0.04c-1.48,1.48-2.22,3.5-2.03,5.62c0.31,3.46,3.21,6.22,6.68,6.37
			c4.02,0.18,7.34-3.04,7.34-7.02c0-1.46-0.45-2.97-1.25-4.28c-0.28-0.45-0.91-0.53-1.3-0.17l-1.79,1.64
			c-0.28,0.26-0.35,0.68-0.18,1.02c0.29,0.58,0.45,1.21,0.45,1.79c0,1.83-1.68,3.28-3.58,2.89c-1.14-0.24-2.06-1.18-2.27-2.32
			c-0.18-0.99,0.12-1.95,0.79-2.63l8.94-8.42c3.97,2.59,6.18,7.2,5.56,12.1c-0.72,5.7-5.39,10.23-11.11,10.8
			c-7.47,0.75-13.79-5.12-13.79-12.44c0-2.24,0.59-4.4,1.71-6.31c0.23-0.39,0.11-0.88-0.26-1.13L135,75.09
			c-0.41-0.28-0.97-0.15-1.22,0.28c-1.77,2.95-2.57,6.37-2.29,9.87c0.67,8.26,7.54,14.84,15.82,15.18
			c9.45,0.39,17.27-7.19,17.27-16.56c0-6.28-3.49-11.96-9.12-14.8c-0.77-0.39-1.69-0.25-2.31,0.33L143.08,78.88z"/>
		<path class="st2" d="M98.29,15.91c0,6.28,3.49,11.96,9.12,14.8c0.77,0.39,1.69,0.25,2.31-0.33l10.07-9.48
			c0.01-0.01,0.03-0.03,0.04-0.04c1.48-1.48,2.22-3.5,2.03-5.62c-0.31-3.46-3.21-6.22-6.68-6.37c-4.02-0.18-7.34,3.04-7.34,7.02
			c0,1.46,0.45,2.97,1.25,4.28c0.28,0.45,0.91,0.53,1.3,0.17l1.79-1.64c0.28-0.26,0.35-0.68,0.18-1.02
			c-0.29-0.58-0.45-1.21-0.45-1.79c0-1.83,1.68-3.28,3.58-2.89c1.14,0.24,2.06,1.18,2.27,2.32c0.18,0.99-0.12,1.95-0.79,2.63
			l-8.94,8.42c-3.97-2.59-6.18-7.2-5.56-12.1c0.72-5.7,5.39-10.23,11.11-10.8c7.47-0.75,13.79,5.12,13.79,12.44
			c0,2.23-0.59,4.4-1.71,6.31c-0.23,0.39-0.11,0.88,0.26,1.13l1.96,1.33c0.41,0.28,0.97,0.15,1.22-0.28
			c1.77-2.95,2.57-6.37,2.29-9.87c-0.67-8.26-7.54-14.84-15.82-15.18C106.1-1.03,98.29,6.54,98.29,15.91z"/>
		<path class="st2" d="M109.94,37.59c-0.01,0.01-0.03,0.03-0.04,0.04c-1.48,1.48-2.22,3.5-2.03,5.62c0.31,3.46,3.21,6.22,6.68,6.37
			c4.02,0.18,7.34-3.04,7.34-7.02c0-1.46-0.45-2.97-1.25-4.28c-0.28-0.45-0.91-0.53-1.3-0.17l-1.79,1.64
			c-0.28,0.26-0.35,0.68-0.18,1.02c0.29,0.58,0.45,1.21,0.45,1.79c0,1.83-1.68,3.28-3.58,2.89c-1.14-0.24-2.06-1.18-2.27-2.32
			c-0.18-0.99,0.12-1.95,0.79-2.63l8.94-8.42c3.97,2.59,6.18,7.2,5.56,12.1c-0.72,5.7-5.39,10.23-11.11,10.8
			c-7.47,0.75-13.79-5.12-13.79-12.44c0-2.24,0.59-4.4,1.71-6.31c0.23-0.39,0.11-0.88-0.26-1.13l-1.96-1.33
			c-0.41-0.28-0.97-0.15-1.22,0.28c-1.77,2.95-2.57,6.37-2.29,9.87c0.67,8.26,7.54,14.84,15.82,15.18
			c9.45,0.39,17.27-7.19,17.27-16.56c0-6.28-3.49-11.96-9.12-14.8c-0.77-0.39-1.69-0.25-2.31,0.33L109.94,37.59z"/>
		<path class="st2" d="M98.29,71.78c0,6.28,3.49,11.96,9.12,14.8c0.77,0.39,1.69,0.25,2.31-0.33l10.07-9.48
			c0.01-0.01,0.03-0.03,0.04-0.04c1.48-1.48,2.22-3.5,2.03-5.62c-0.31-3.46-3.21-6.22-6.68-6.37c-4.02-0.18-7.34,3.04-7.34,7.02
			c0,1.46,0.45,2.97,1.25,4.28c0.28,0.45,0.91,0.53,1.3,0.17l1.79-1.64c0.28-0.26,0.35-0.68,0.18-1.02
			c-0.29-0.58-0.45-1.21-0.45-1.79c0-1.83,1.68-3.28,3.58-2.89c1.14,0.24,2.06,1.18,2.27,2.32c0.18,0.99-0.12,1.95-0.79,2.63
			l-8.94,8.42c-3.97-2.59-6.18-7.2-5.56-12.1c0.72-5.7,5.39-10.23,11.11-10.8c7.47-0.75,13.79,5.12,13.79,12.44
			c0,2.23-0.59,4.4-1.71,6.31c-0.23,0.39-0.11,0.88,0.26,1.13l1.96,1.33c0.41,0.28,0.97,0.15,1.22-0.28
			c1.77-2.95,2.57-6.37,2.29-9.87c-0.67-8.26-7.54-14.84-15.82-15.18C106.1,54.83,98.29,62.41,98.29,71.78z"/>
		<path class="st2" d="M109.94,93.45c-0.01,0.01-0.03,0.03-0.04,0.04c-1.48,1.48-2.22,3.5-2.03,5.62c0.31,3.46,3.21,6.22,6.68,6.37
			c4.02,0.18,7.34-3.04,7.34-7.02c0-1.46-0.45-2.97-1.25-4.28c-0.28-0.45-0.91-0.53-1.3-0.17l-1.79,1.64
			c-0.28,0.26-0.35,0.68-0.18,1.02c0.29,0.58,0.45,1.21,0.45,1.79c0,1.83-1.68,3.28-3.58,2.89c-1.14-0.24-2.06-1.18-2.27-2.32
			c-0.18-0.99,0.12-1.95,0.79-2.63l8.94-8.42c3.97,2.59,6.18,7.2,5.56,12.1c-0.72,5.7-5.39,10.23-11.11,10.8
			c-7.47,0.75-13.79-5.12-13.79-12.44c0-2.24,0.59-4.4,1.71-6.31c0.23-0.39,0.11-0.88-0.26-1.13l-1.96-1.33
			c-0.41-0.28-0.97-0.15-1.22,0.28c-1.77,2.95-2.57,6.37-2.29,9.87c0.67,8.26,7.54,14.84,15.82,15.18
			c9.45,0.39,17.27-7.19,17.27-16.56c0-6.28-3.49-11.96-9.12-14.8c-0.77-0.39-1.69-0.25-2.31,0.33L109.94,93.45z"/>
		<path class="st2" d="M65.14,0.92c0,6.28,3.49,11.96,9.12,14.8c0.77,0.39,1.69,0.25,2.31-0.33L86.63,5.9
			c0.01-0.01,0.03-0.03,0.04-0.04c1.48-1.48,2.22-3.5,2.03-5.62c-0.31-3.46-3.21-6.22-6.68-6.37c-4.02-0.18-7.34,3.04-7.34,7.02
			c0,1.46,0.45,2.97,1.25,4.28c0.28,0.45,0.91,0.53,1.3,0.17l1.79-1.64c0.28-0.26,0.35-0.68,0.18-1.02
			c-0.29-0.58-0.45-1.21-0.45-1.79c0-1.83,1.68-3.28,3.58-2.89c1.14,0.24,2.06,1.18,2.27,2.32c0.18,0.99-0.12,1.95-0.79,2.63
			l-8.94,8.42c-3.97-2.59-6.18-7.2-5.56-12.1c0.72-5.7,5.39-10.23,11.11-10.8c7.47-0.75,13.79,5.12,13.79,12.44
			c0,2.23-0.59,4.4-1.71,6.31c-0.23,0.39-0.11,0.88,0.26,1.13l1.96,1.33c0.41,0.28,0.97,0.15,1.22-0.28
			c1.77-2.95,2.57-6.37,2.29-9.87c-0.67-8.26-7.54-14.84-15.82-15.18C72.95-16.02,65.14-8.45,65.14,0.92z"/>
		<path class="st2" d="M76.79,22.6c-0.01,0.01-0.03,0.03-0.04,0.04c-1.48,1.48-2.22,3.5-2.03,5.62c0.31,3.46,3.21,6.22,6.68,6.37
			c4.02,0.18,7.34-3.04,7.34-7.02c0-1.46-0.45-2.97-1.25-4.28c-0.28-0.45-0.91-0.53-1.3-0.17l-1.79,1.64
			c-0.28,0.26-0.35,0.68-0.18,1.02c0.29,0.58,0.45,1.21,0.45,1.79c0,1.83-1.68,3.28-3.58,2.89c-1.14-0.24-2.06-1.18-2.27-2.32
			c-0.18-0.99,0.12-1.95,0.79-2.63l8.94-8.42c3.97,2.59,6.18,7.2,5.56,12.1c-0.72,5.7-5.39,10.23-11.11,10.8
			c-7.47,0.75-13.79-5.12-13.79-12.44c0-2.24,0.59-4.4,1.71-6.31c0.23-0.39,0.11-0.88-0.26-1.13l-1.96-1.33
			c-0.41-0.28-0.97-0.15-1.22,0.28c-1.77,2.95-2.57,6.37-2.29,9.87c0.67,8.26,7.54,14.84,15.82,15.18
			c9.45,0.39,17.27-7.19,17.27-16.56c0-6.28-3.49-11.96-9.12-14.8c-0.77-0.39-1.69-0.25-2.31,0.33L76.79,22.6z"/>
		<path class="st2" d="M65.14,56.79c0,6.28,3.49,11.96,9.12,14.8c0.77,0.39,1.69,0.25,2.31-0.33l10.07-9.48
			c0.01-0.01,0.03-0.03,0.04-0.04c1.48-1.48,2.22-3.5,2.03-5.62c-0.31-3.46-3.21-6.22-6.68-6.37c-4.02-0.18-7.34,3.04-7.34,7.02
			c0,1.46,0.45,2.97,1.25,4.28c0.28,0.45,0.91,0.53,1.3,0.17l1.79-1.64c0.28-0.26,0.35-0.68,0.18-1.02
			c-0.29-0.58-0.45-1.21-0.45-1.79c0-1.83,1.68-3.28,3.58-2.89c1.14,0.24,2.06,1.18,2.27,2.32c0.18,0.99-0.12,1.95-0.79,2.63
			l-8.94,8.42c-3.97-2.59-6.18-7.2-5.56-12.1c0.72-5.7,5.39-10.23,11.11-10.8c7.47-0.75,13.79,5.12,13.79,12.44
			c0,2.23-0.59,4.4-1.71,6.31c-0.23,0.39-0.11,0.88,0.26,1.13l1.96,1.33c0.41,0.28,0.97,0.15,1.22-0.28
			c1.77-2.95,2.57-6.37,2.29-9.87c-0.67-8.26-7.54-14.84-15.82-15.18C72.95,39.84,65.14,47.42,65.14,56.79z"/>
		<path class="st2" d="M76.79,78.46c-0.01,0.01-0.03,0.03-0.04,0.04c-1.48,1.48-2.22,3.5-2.03,5.62c0.31,3.46,3.21,6.22,6.68,6.37
			c4.02,0.18,7.34-3.04,7.34-7.02c0-1.46-0.45-2.97-1.25-4.28c-0.28-0.45-0.91-0.53-1.3-0.17l-1.79,1.64
			c-0.28,0.26-0.35,0.68-0.18,1.02c0.29,0.58,0.45,1.21,0.45,1.79c0,1.83-1.68,3.28-3.58,2.89c-1.14-0.24-2.06-1.18-2.27-2.32
			c-0.18-0.99,0.12-1.95,0.79-2.63l8.94-8.42c3.97,2.59,6.18,7.2,5.56,12.1c-0.72,5.7-5.39,10.23-11.11,10.8
			c-7.47,0.75-13.79-5.12-13.79-12.44c0-2.24,0.59-4.4,1.71-6.31c0.23-0.39,0.11-0.88-0.26-1.13l-1.96-1.33
			c-0.41-0.28-0.97-0.15-1.22,0.28c-1.77,2.95-2.57,6.37-2.29,9.87c0.67,8.26,7.54,14.84,15.82,15.18
			c9.45,0.39,17.27-7.19,17.27-16.56c0-6.28-3.49-11.96-9.12-14.8c-0.77-0.39-1.69-0.25-2.31,0.33L76.79,78.46z"/>
		<path class="st2" d="M31.57,15.91c0,6.28,3.49,11.96,9.12,14.8c0.77,0.39,1.69,0.25,2.31-0.33l10.07-9.48
			c0.01-0.01,0.03-0.03,0.04-0.04c1.48-1.48,2.22-3.5,2.03-5.62c-0.31-3.46-3.21-6.22-6.68-6.37c-4.02-0.18-7.34,3.04-7.34,7.02
			c0,1.46,0.45,2.97,1.25,4.28c0.28,0.45,0.91,0.53,1.3,0.17l1.79-1.64c0.28-0.26,0.35-0.68,0.18-1.02
			c-0.29-0.58-0.45-1.21-0.45-1.79c0-1.83,1.68-3.28,3.58-2.89c1.14,0.24,2.06,1.18,2.27,2.32c0.18,0.99-0.12,1.95-0.79,2.63
			l-8.94,8.42c-3.97-2.59-6.18-7.2-5.56-12.1c0.72-5.7,5.39-10.23,11.11-10.8c7.47-0.75,13.79,5.12,13.79,12.44
			c0,2.23-0.59,4.4-1.71,6.31c-0.23,0.39-0.11,0.88,0.26,1.13l1.96,1.33c0.41,0.28,0.97,0.15,1.22-0.28
			c1.77-2.95,2.57-6.37,2.29-9.87C63.99,6.28,57.12-0.31,48.84-0.65C39.39-1.03,31.57,6.54,31.57,15.91z"/>
		<path class="st2" d="M43.22,37.59c-0.01,0.01-0.03,0.03-0.04,0.04c-1.48,1.48-2.22,3.5-2.03,5.62c0.31,3.46,3.21,6.22,6.68,6.37
			c4.02,0.18,7.34-3.04,7.34-7.02c0-1.46-0.45-2.97-1.25-4.28c-0.28-0.45-0.91-0.53-1.3-0.17l-1.79,1.64
			c-0.28,0.26-0.35,0.68-0.18,1.02c0.29,0.58,0.45,1.21,0.45,1.79c0,1.83-1.68,3.28-3.58,2.89c-1.14-0.24-2.06-1.18-2.27-2.32
			c-0.18-0.99,0.12-1.95,0.79-2.63l8.94-8.42c3.97,2.59,6.18,7.2,5.56,12.1c-0.72,5.7-5.39,10.23-11.11,10.8
			c-7.47,0.75-13.79-5.12-13.79-12.44c0-2.24,0.59-4.4,1.71-6.31c0.23-0.39,0.11-0.88-0.26-1.13l-1.96-1.33
			c-0.41-0.28-0.97-0.15-1.22,0.28c-1.77,2.95-2.57,6.37-2.29,9.87c0.67,8.26,7.54,14.84,15.82,15.18
			c9.45,0.39,17.27-7.19,17.27-16.56c0-6.28-3.49-11.96-9.12-14.8c-0.77-0.39-1.69-0.25-2.31,0.33L43.22,37.59z"/>
		<path class="st2" d="M31.57,71.78c0,6.28,3.49,11.96,9.12,14.8c0.77,0.39,1.69,0.25,2.31-0.33l10.07-9.48
			c0.01-0.01,0.03-0.03,0.04-0.04c1.48-1.48,2.22-3.5,2.03-5.62c-0.31-3.46-3.21-6.22-6.68-6.37c-4.02-0.18-7.34,3.04-7.34,7.02
			c0,1.46,0.45,2.97,1.25,4.28c0.28,0.45,0.91,0.53,1.3,0.17l1.79-1.64c0.28-0.26,0.35-0.68,0.18-1.02
			c-0.29-0.58-0.45-1.21-0.45-1.79c0-1.83,1.68-3.28,3.58-2.89c1.14,0.24,2.06,1.18,2.27,2.32c0.18,0.99-0.12,1.95-0.79,2.63
			l-8.94,8.42c-3.97-2.59-6.18-7.2-5.56-12.1c0.72-5.7,5.39-10.23,11.11-10.8c7.47-0.75,13.79,5.12,13.79,12.44
			c0,2.23-0.59,4.4-1.71,6.31c-0.23,0.39-0.11,0.88,0.26,1.13l1.96,1.33c0.41,0.28,0.97,0.15,1.22-0.28
			c1.77-2.95,2.57-6.37,2.29-9.87c-0.67-8.26-7.54-14.84-15.82-15.18C39.39,54.83,31.57,62.41,31.57,71.78z"/>
		<path class="st2" d="M43.22,93.45c-0.01,0.01-0.03,0.03-0.04,0.04c-1.48,1.48-2.22,3.5-2.03,5.62c0.31,3.46,3.21,6.22,6.68,6.37
			c4.02,0.18,7.34-3.04,7.34-7.02c0-1.46-0.45-2.97-1.25-4.28c-0.28-0.45-0.91-0.53-1.3-0.17l-1.79,1.64
			c-0.28,0.26-0.35,0.68-0.18,1.02c0.29,0.58,0.45,1.21,0.45,1.79c0,1.83-1.68,3.28-3.58,2.89c-1.14-0.24-2.06-1.18-2.27-2.32
			c-0.18-0.99,0.12-1.95,0.79-2.63l8.94-8.42c3.97,2.59,6.18,7.2,5.56,12.1c-0.72,5.7-5.39,10.23-11.11,10.8
			c-7.47,0.75-13.79-5.12-13.79-12.44c0-2.24,0.59-4.4,1.71-6.31c0.23-0.39,0.11-0.88-0.26-1.13l-1.96-1.33
			c-0.41-0.28-0.97-0.15-1.22,0.28c-1.77,2.95-2.57,6.37-2.29,9.87c0.67,8.26,7.54,14.84,15.82,15.18
			c9.45,0.39,17.27-7.19,17.27-16.56c0-6.28-3.49-11.96-9.12-14.8c-0.77-0.39-1.69-0.25-2.31,0.33L43.22,93.45z"/>
		<path class="st2" d="M-1.58,0.92c0,6.28,3.49,11.96,9.12,14.8c0.77,0.39,1.69,0.25,2.31-0.33L19.92,5.9
			c0.01-0.01,0.03-0.03,0.04-0.04c1.48-1.48,2.22-3.5,2.03-5.62c-0.31-3.46-3.21-6.22-6.68-6.37C11.3-6.3,7.97-3.08,7.97,0.89
			c0,1.46,0.45,2.97,1.25,4.28c0.28,0.45,0.91,0.53,1.3,0.17l1.79-1.64c0.28-0.26,0.35-0.68,0.18-1.02
			c-0.29-0.58-0.45-1.21-0.45-1.79c0-1.83,1.68-3.28,3.58-2.89c1.14,0.24,2.06,1.18,2.27,2.32c0.18,0.99-0.12,1.95-0.79,2.63
			l-8.94,8.42C4.19,8.8,1.98,4.18,2.6-0.71c0.72-5.7,5.39-10.23,11.11-10.8C21.18-12.27,27.5-6.4,27.5,0.92
			c0,2.23-0.59,4.4-1.71,6.31c-0.23,0.39-0.11,0.88,0.26,1.13l1.96,1.33c0.41,0.28,0.97,0.15,1.22-0.28
			C31,6.46,31.8,3.04,31.52-0.46c-0.67-8.26-7.54-14.84-15.82-15.18C6.24-16.02-1.58-8.45-1.58,0.92z"/>
		<path class="st2" d="M10.07,22.6c-0.01,0.01-0.03,0.03-0.04,0.04c-1.48,1.48-2.22,3.5-2.03,5.62c0.31,3.46,3.21,6.22,6.68,6.37
			c4.02,0.18,7.34-3.04,7.34-7.02c0-1.46-0.45-2.97-1.25-4.28c-0.28-0.45-0.91-0.53-1.3-0.17l-1.79,1.64
			c-0.28,0.26-0.35,0.68-0.18,1.02c0.29,0.58,0.45,1.21,0.45,1.79c0,1.83-1.68,3.28-3.58,2.89c-1.14-0.24-2.06-1.18-2.27-2.32
			c-0.18-0.99,0.12-1.95,0.79-2.63l8.94-8.42c3.97,2.59,6.18,7.2,5.56,12.1c-0.72,5.7-5.39,10.23-11.11,10.8
			C8.82,40.77,2.5,34.9,2.5,27.58c0-2.24,0.59-4.4,1.71-6.31c0.23-0.39,0.11-0.88-0.26-1.13l-1.96-1.33
			c-0.41-0.28-0.97-0.15-1.22,0.28C-1,22.04-1.8,25.47-1.52,28.96c0.67,8.26,7.54,14.84,15.82,15.18
			c9.45,0.39,17.27-7.19,17.27-16.56c0-6.28-3.49-11.96-9.12-14.8c-0.77-0.39-1.69-0.25-2.31,0.33L10.07,22.6z"/>
		<path class="st2" d="M-1.58,56.79c0,6.28,3.49,11.96,9.12,14.8c0.77,0.39,1.69,0.25,2.31-0.33l10.07-9.48
			c0.01-0.01,0.03-0.03,0.04-0.04c1.48-1.48,2.22-3.5,2.03-5.62c-0.31-3.46-3.21-6.22-6.68-6.37c-4.02-0.18-7.34,3.04-7.34,7.02
			c0,1.46,0.45,2.97,1.25,4.28c0.28,0.45,0.91,0.53,1.3,0.17l1.79-1.64c0.28-0.26,0.35-0.68,0.18-1.02
			c-0.29-0.58-0.45-1.21-0.45-1.79c0-1.83,1.68-3.28,3.58-2.89c1.14,0.24,2.06,1.18,2.27,2.32c0.18,0.99-0.12,1.95-0.79,2.63
			l-8.94,8.42c-3.97-2.59-6.18-7.2-5.56-12.1c0.72-5.7,5.39-10.23,11.11-10.8c7.47-0.75,13.79,5.12,13.79,12.44
			c0,2.23-0.59,4.4-1.71,6.31c-0.23,0.39-0.11,0.88,0.26,1.13l1.96,1.33c0.41,0.28,0.97,0.15,1.22-0.28
			c1.77-2.95,2.57-6.37,2.29-9.87c-0.67-8.26-7.54-14.84-15.82-15.18C6.24,39.84-1.58,47.42-1.58,56.79z"/>
		<path class="st2" d="M10.07,78.46c-0.01,0.01-0.03,0.03-0.04,0.04c-1.48,1.48-2.22,3.5-2.03,5.62c0.31,3.46,3.21,6.22,6.68,6.37
			c4.02,0.18,7.34-3.04,7.34-7.02c0-1.46-0.45-2.97-1.25-4.28c-0.28-0.45-0.91-0.53-1.3-0.17l-1.79,1.64
			c-0.28,0.26-0.35,0.68-0.18,1.02c0.29,0.58,0.45,1.21,0.45,1.79c0,1.83-1.68,3.28-3.58,2.89c-1.14-0.24-2.06-1.18-2.27-2.32
			c-0.18-0.99,0.12-1.95,0.79-2.63l8.94-8.42c3.97,2.59,6.18,7.2,5.56,12.1c-0.72,5.7-5.39,10.23-11.11,10.8
			C8.82,96.63,2.5,90.76,2.5,83.44c0-2.24,0.59-4.4,1.71-6.31c0.23-0.39,0.11-0.88-0.26-1.13l-1.96-1.33
			c-0.41-0.28-0.97-0.15-1.22,0.28C-1,77.91-1.8,81.33-1.52,84.82C-0.85,93.08,6.02,99.66,14.3,100
			c9.45,0.39,17.27-7.19,17.27-16.56c0-6.28-3.49-11.96-9.12-14.8c-0.77-0.39-1.69-0.25-2.31,0.33L10.07,78.46z"/>
	</g>
	
		<radialGradient id="SVGID_00000054263963060172731690000014469019672087242633_" cx="372.2967" cy="278.5727" r="96.901" gradientTransform="matrix(7.220033e-17 1.1791 -1.0992 6.730597e-17 437.4303 -362.3399)" gradientUnits="userSpaceOnUse">
		<stop  offset="0" style="stop-color:#00A7E1"/>
		<stop  offset="1" style="stop-color:#0075C9"/>
	</radialGradient>
	
		<polygon style="opacity:0.81;clip-path:url(#SVGID_00000057856884631606183310000010937202355658774429_);fill:url(#SVGID_00000054263963060172731690000014469019672087242633_);" points="
		-1.38,153.29 -1.38,0 263.84,0 263.84,153.29 	"/>
</g>
</svg>
