<?xml version="1.0" encoding="utf-8"?>
<!-- Generator: Adobe Illustrator 25.4.1, SVG Export Plug-In . SVG Version: 6.00 Build 0)  -->
<svg version="1.1" id="Capa_1" xmlns="http://www.w3.org/2000/svg" xmlns:xlink="http://www.w3.org/1999/xlink" x="0px" y="0px"
	 viewBox="0 0 263 92" style="enable-background:new 0 0 263 92;" xml:space="preserve">
<style type="text/css">
	.st0{clip-path:url(#SVGID_00000001654975961207282220000005756265636629690784_);fill:#164F9A;}
	.st1{opacity:0.14;clip-path:url(#SVGID_00000001654975961207282220000005756265636629690784_);}
	.st2{fill:#FFFFFF;}
	
		.st3{opacity:0.81;clip-path:url(#SVGID_00000001654975961207282220000005756265636629690784_);fill:url(#SVGID_00000161601482064928695750000011883041828915432622_);}
</style>
<g>
	<g>
		<g>
			<path class="st2" d="M50.16,73.73h1.01c0.1,0,0.2-0.01,0.3-0.02c0.06-0.01,0.1-0.05,0.12-0.11c0.39-1.81,2-3.17,3.92-3.17h0.21
				c0.04-0.22,0.06-0.44,0.06-0.67v-0.72h-0.27C52.77,69.03,50.51,71.08,50.16,73.73z"/>
			<path class="st2" d="M54.68,82.78c-1.81-0.39-3.17-2-3.17-3.92v-0.21c-0.22-0.04-0.44-0.06-0.67-0.06h-0.72v0.27
				c0,2.75,2.05,5.01,4.7,5.36V83.2c0-0.1-0.01-0.2-0.02-0.3C54.78,82.83,54.74,82.79,54.68,82.78z"/>
			<path class="st2" d="M63.98,79.58c-0.06,0.01-0.1,0.05-0.12,0.11c-0.39,1.81-2,3.17-3.92,3.17h-0.21
				c-0.04,0.22-0.06,0.44-0.06,0.67l0,0v0.72h0.27c2.75,0,5.01-2.05,5.36-4.7h-1.01C64.18,79.56,64.08,79.56,63.98,79.58z"/>
			<path class="st2" d="M60.64,69.08v1.01c0,0.1,0.01,0.2,0.03,0.3c0.01,0.06,0.05,0.1,0.11,0.12c1.81,0.39,3.17,2,3.17,3.92v0.21
				c0.22,0.04,0.44,0.06,0.67,0.06h0.72v-0.27C65.34,71.69,63.29,69.42,60.64,69.08z"/>
			<path class="st2" d="M56.34,80.69c-0.18-0.27-0.39-0.52-0.62-0.76l-1.28-1.28c-0.23-0.23-0.49-0.44-0.76-0.62
				c-0.83-0.56-1.81-0.87-2.84-0.87h-0.72v1.42h0.72c0.98,0,1.9,0.38,2.6,1.07l1.28,1.28c0.69,0.69,1.07,1.61,1.07,2.59v0.72h1.42
				v-0.72C57.21,82.51,56.9,81.53,56.34,80.69z"/>
			<path class="st2" d="M56.86,73.64c-0.13,0.15-0.26,0.31-0.41,0.45l-1.28,1.28c-0.14,0.14-0.29,0.28-0.45,0.41
				c-0.43,0.35-0.91,0.64-1.41,0.87c-0.77,0.34-1.61,0.52-2.48,0.52l0,0c1.03,0,2.01,0.3,2.84,0.87c0.36-0.15,0.71-0.32,1.04-0.52
				c0.41-0.25,0.8-0.54,1.17-0.87c0.1-0.09,0.19-0.18,0.29-0.27l1.28-1.28c0.09-0.09,0.18-0.19,0.27-0.29
				C57.4,74.44,57.11,74.05,56.86,73.64z"/>
			<path class="st2" d="M55.79,69.03v0.72c0,0.98-0.38,1.9-1.07,2.59l-1.28,1.28c-0.69,0.69-1.62,1.07-2.6,1.07h-0.72v1.42h0.72
				c1.03,0,2.01-0.3,2.84-0.87c0.27-0.18,0.52-0.39,0.76-0.62l1.28-1.28c0.23-0.23,0.44-0.49,0.62-0.76
				c0.56-0.83,0.87-1.81,0.87-2.84v-0.72H55.79z"/>
			<path class="st2" d="M60.28,75.37L59,74.09c-0.14-0.14-0.28-0.29-0.41-0.45c-0.35-0.43-0.64-0.91-0.87-1.41
				c-0.34-0.77-0.52-1.61-0.52-2.48l0,0c0,1.03-0.3,2.01-0.87,2.84l0,0c0.15,0.36,0.32,0.71,0.52,1.04c0.25,0.41,0.54,0.8,0.87,1.17
				c0.09,0.1,0.18,0.19,0.27,0.29l1.28,1.28c0.09,0.09,0.19,0.18,0.29,0.27c0.36-0.33,0.75-0.62,1.17-0.87
				C60.58,75.65,60.43,75.51,60.28,75.37z"/>
			<path class="st2" d="M64.62,74.7c-0.98,0-1.9-0.38-2.6-1.07l-1.28-1.28c-0.69-0.69-1.07-1.61-1.07-2.59v-0.72h-1.42v0.72
				c0,1.03,0.3,2.01,0.87,2.84c0.18,0.27,0.39,0.52,0.62,0.76l1.28,1.28c0.23,0.23,0.49,0.44,0.76,0.62
				c0.83,0.56,1.81,0.87,2.84,0.87h0.72V74.7l0,0l0,0H64.62z"/>
			<path class="st2" d="M64.62,76.12c-1.03,0-2.01-0.3-2.84-0.87c-0.36,0.15-0.71,0.32-1.04,0.52c-0.41,0.25-0.8,0.54-1.17,0.87
				c-0.1,0.09-0.19,0.18-0.29,0.27L58,78.2c-0.09,0.09-0.18,0.19-0.27,0.29c0.33,0.36,0.62,0.75,0.87,1.17
				c0.13-0.16,0.26-0.31,0.41-0.45l1.28-1.28c0.14-0.14,0.29-0.28,0.45-0.41c0.43-0.36,0.91-0.64,1.41-0.87
				C62.91,76.3,63.75,76.12,64.62,76.12L64.62,76.12z"/>
			<path class="st2" d="M64.62,77.16c-1.03,0-2.01,0.3-2.84,0.87c-0.27,0.18-0.52,0.39-0.76,0.62l-1.28,1.28
				c-0.23,0.23-0.44,0.49-0.62,0.76l0,0c-0.56,0.83-0.87,1.81-0.87,2.84v0.72h1.42v-0.72l0,0c0-0.98,0.38-1.9,1.07-2.59l1.28-1.28
				c0.69-0.69,1.62-1.07,2.6-1.07h0.72v-1.42H64.62z"/>
			<path class="st2" d="M58.6,79.65c-0.25-0.41-0.54-0.8-0.87-1.17c-0.09-0.1-0.18-0.19-0.27-0.29l-1.28-1.28
				c-0.09-0.09-0.19-0.18-0.29-0.27c-0.36,0.33-0.75,0.62-1.17,0.87c0.16,0.13,0.31,0.26,0.45,0.41l1.28,1.28
				c0.14,0.14,0.28,0.29,0.41,0.45c0.35,0.43,0.64,0.91,0.87,1.41c0.34,0.77,0.52,1.61,0.52,2.48c0-1.03,0.3-2.01,0.87-2.84l0,0
				C58.97,80.33,58.8,79.98,58.6,79.65z"/>
		</g>
		<path class="st2" d="M93.53,74.8c0.14,0,0.25-0.07,0.29-0.19l0.24-0.66c0.02-0.06,0-0.09-0.06-0.09h-1.59
			c-0.13,0-0.26,0.06-0.32,0.22l-0.23,0.63c-0.02,0.06,0,0.09,0.06,0.09H93.53z M73.36,73.96h-1.14c-0.22,0-0.35,0.08-0.45,0.27
			l-0.93,1.98l-0.93-1.98c-0.1-0.19-0.25-0.27-0.46-0.27h-1.08c-0.12,0-0.15,0.06-0.09,0.18l1.8,3.53v1.97
			c0,0.09,0.04,0.14,0.12,0.14h1.26c0.08,0,0.12-0.05,0.12-0.14v-1.96l1.86-3.54C73.51,74.01,73.48,73.96,73.36,73.96z M77.32,75.34
			h-0.93c-0.19,0-0.33,0.13-0.33,0.33v2.97h-0.52c-0.36,0.01-0.53-0.02-0.65-0.16c-0.09-0.17-0.13-0.43-0.12-0.99v-2.02
			c0-0.09-0.04-0.13-0.12-0.13h-0.92c-0.18,0-0.33,0.15-0.33,0.33v2.23c0,0.81,0.08,1.25,0.38,1.54c0.31,0.29,0.73,0.37,1.54,0.37
			c0.84,0,1.5-0.05,1.99-0.14c0.09-0.02,0.11-0.04,0.11-0.13v-4.07C77.43,75.38,77.39,75.34,77.32,75.34z M81.58,75.4
			c-0.34-0.07-0.67-0.1-1.21-0.1c-1.06,0.02-1.56,0.13-1.85,0.69c-0.16,0.37-0.23,0.81-0.23,1.56v0.01c0,0.76,0.06,1.2,0.23,1.56
			c0.28,0.56,0.78,0.66,1.85,0.69c0.55,0,0.87-0.04,1.21-0.1c0.17-0.03,0.25-0.16,0.25-0.36v-0.59c0-0.09-0.05-0.13-0.14-0.13h-1.32
			c-0.29,0-0.48-0.07-0.58-0.21c-0.08-0.14-0.13-0.42-0.13-0.85h0c0-0.01,0-0.01,0-0.02c0-0.01,0-0.01,0-0.02h0
			c0-0.43,0.05-0.71,0.13-0.85c0.09-0.14,0.29-0.21,0.58-0.21h1.32c0.09,0,0.14-0.04,0.14-0.13v-0.59
			C81.83,75.56,81.76,75.44,81.58,75.4z M99.41,75.67c-0.31-0.29-0.73-0.37-1.53-0.37c-0.95,0-1.62,0.05-2,0.14
			c-0.07,0.02-0.11,0.02-0.11,0.12v4.09c0,0.09,0.04,0.13,0.11,0.13h1.15c0.08,0,0.12-0.04,0.12-0.13v-3.17h0.52
			c0.38,0,0.52-0.01,0.64,0.17c0.13,0.18,0.13,0.39,0.13,0.98v2.02c0,0.09,0.04,0.13,0.11,0.13h1.13c0.08,0,0.12-0.04,0.12-0.13
			V77.2C99.8,76.39,99.72,75.96,99.41,75.67z M92.78,75.3c-0.52,0-0.97,0.03-1.37,0.1c-0.18,0.03-0.27,0.14-0.27,0.35v0.6
			c0,0.08,0.03,0.12,0.1,0.12h1.53c0.4,0,0.59,0.16,0.59,0.46v0.16l-0.86,0.01c-0.6,0-1.03,0.09-1.3,0.27
			c-0.27,0.17-0.4,0.52-0.41,1.05c0.05,0.8,0.23,1.13,0.74,1.29c0.18,0.05,0.36,0.08,0.52,0.09c0.17,0.02,0.4,0.02,0.69,0.02
			c0.66,0,1.26-0.05,1.8-0.16c0.13-0.03,0.19-0.12,0.19-0.25v-2.69C94.75,75.87,94.5,75.31,92.78,75.3z M93.38,78.66
			c-0.17,0.04-0.39,0.06-0.66,0.06c-0.43,0-0.56-0.09-0.56-0.4c0-0.29,0.12-0.41,0.49-0.41h0.73V78.66z M84.47,75.3
			c-0.52,0-0.97,0.03-1.37,0.1c-0.18,0.03-0.27,0.14-0.27,0.35v0.6c0,0.08,0.03,0.12,0.1,0.12h1.53c0.4,0,0.59,0.16,0.59,0.46v0.16
			L84.2,77.1c-0.6,0-1.03,0.09-1.3,0.27c-0.27,0.17-0.4,0.52-0.41,1.05c0.05,0.8,0.23,1.13,0.74,1.29c0.18,0.05,0.36,0.08,0.52,0.09
			c0.17,0.02,0.4,0.02,0.69,0.02c0.67,0,1.26-0.05,1.8-0.16c0.13-0.03,0.19-0.12,0.19-0.25v-2.69
			C86.43,75.87,86.18,75.31,84.47,75.3z M85.06,78.66c-0.17,0.04-0.39,0.06-0.66,0.06c-0.43,0-0.56-0.09-0.56-0.4
			c0-0.29,0.12-0.41,0.49-0.41h0.73V78.66z M89.92,78.59h-0.31c-0.35,0-0.46-0.07-0.46-0.41v-1.95h0.7c0.09,0,0.14-0.04,0.14-0.13
			v-0.79c0-0.08-0.05-0.12-0.14-0.12h-0.7v-1.05c0-0.1-0.07-0.13-0.14-0.13l-0.88,0c-0.23,0-0.39,0.11-0.39,0.4v0.78h-0.49
			c-0.09,0-0.14,0.04-0.14,0.12v0.79c0,0.09,0.05,0.13,0.14,0.13h0.49v2.46c0,0.52,0.12,0.83,0.41,0.97
			c0.15,0.06,0.29,0.11,0.41,0.12c0.13,0.02,0.32,0.02,0.55,0.02c0.22,0,0.49-0.03,0.8-0.09c0.09-0.02,0.14-0.07,0.14-0.16v-0.85
			C90.05,78.64,90.01,78.59,89.92,78.59z"/>
		<g>
			<path class="st2" d="M69.93,70.82c0.03,0,0.04,0.01,0.04,0.04v1.07c0,0.43-0.06,0.73-0.2,0.89c-0.13,0.16-0.38,0.23-0.76,0.23
				c-0.17,0-0.32-0.01-0.47-0.04c-0.04-0.01-0.07-0.04-0.07-0.07V72.7c0-0.03,0.01-0.04,0.04-0.04h0.49c0.2,0,0.34-0.05,0.4-0.14
				c0.07-0.1,0.1-0.29,0.1-0.58l0-1.07c0-0.03,0.01-0.04,0.04-0.04H69.93z"/>
			<path class="st2" d="M71.74,71.4c0.03,0,0.04,0.01,0.04,0.04v1.51c0,0.04-0.01,0.04-0.04,0.05c-0.17,0.03-0.41,0.05-0.7,0.05
				c-0.3,0-0.45-0.02-0.56-0.13c-0.11-0.11-0.14-0.27-0.14-0.58v-0.91c0-0.03,0.01-0.04,0.05-0.04h0.35c0.03,0,0.04,0.01,0.04,0.04
				v0.8c0,0.14,0.01,0.25,0.03,0.31c0.04,0.12,0.09,0.14,0.29,0.14h0.26v-1.24c0-0.03,0.01-0.04,0.04-0.04H71.74z"/>
			<path class="st2" d="M73.44,71.52c0.12,0.11,0.15,0.27,0.15,0.58V73c0,0.03-0.01,0.05-0.05,0.05h-0.35
				c-0.03,0-0.04-0.01-0.04-0.05v-0.8c0-0.22,0-0.31-0.06-0.38c-0.05-0.06-0.1-0.06-0.26-0.06h-0.27V73c0,0.03-0.01,0.05-0.04,0.05
				h-0.35c-0.03,0-0.04-0.01-0.04-0.05v-1.52c0-0.04,0.01-0.04,0.04-0.04c0.15-0.03,0.38-0.05,0.7-0.05
				C73.17,71.39,73.32,71.41,73.44,71.52z"/>
			<path class="st2" d="M74.39,70.95c0.03-0.01,0.05,0.01,0.05,0.04v0.42h0.27c0.03,0,0.05,0.01,0.05,0.04v0.23
				c0,0.03-0.02,0.04-0.05,0.04h-0.27v0.8c0,0.12,0.04,0.15,0.17,0.15h0.12c0.03,0,0.05,0.01,0.05,0.04v0.25
				c0,0.03-0.01,0.05-0.05,0.06c-0.09,0.02-0.17,0.03-0.25,0.03c-0.13,0-0.18,0-0.28-0.03C74.07,73,74.02,72.91,74,72.68v-0.95
				h-0.17c-0.03,0-0.05-0.01-0.05-0.04v-0.23c0-0.03,0.01-0.04,0.05-0.04H74v-0.33c0-0.03,0.01-0.04,0.04-0.05L74.39,70.95z"/>
			<path class="st2" d="M76.32,71.56c0.12,0.13,0.15,0.32,0.15,0.67c0,0.34-0.05,0.56-0.15,0.67c-0.1,0.11-0.3,0.16-0.6,0.16
				c-0.3,0-0.5-0.06-0.6-0.16c-0.1-0.11-0.15-0.33-0.15-0.67c0-0.34,0.05-0.56,0.15-0.67c0.1-0.11,0.3-0.17,0.6-0.17
				C76.03,71.39,76.2,71.43,76.32,71.56z M75.46,71.86c-0.04,0.06-0.06,0.18-0.06,0.37c0,0.19,0.02,0.31,0.06,0.37
				c0.04,0.06,0.12,0.09,0.26,0.09c0.13,0,0.22-0.03,0.26-0.09c0.04-0.06,0.06-0.19,0.06-0.37c0-0.19-0.02-0.31-0.06-0.37
				c-0.04-0.06-0.12-0.09-0.26-0.09C75.58,71.76,75.5,71.79,75.46,71.86z"/>
			<path class="st2" d="M77.86,71.43c0.03,0.01,0.05,0.02,0.05,0.05v0.22c0,0.03-0.02,0.05-0.05,0.05h-0.53
				c-0.11,0-0.17,0.04-0.17,0.11v0.03c0,0.06,0.05,0.1,0.14,0.14l0.38,0.13c0.23,0.08,0.31,0.22,0.31,0.44v0.05
				c0,0.32-0.22,0.43-0.63,0.43c-0.22,0-0.42-0.01-0.61-0.03c-0.03,0-0.05-0.01-0.05-0.04v-0.24c0-0.03,0.02-0.04,0.05-0.04h0.6
				c0.16,0,0.2-0.02,0.2-0.1v-0.03c0-0.06-0.04-0.09-0.16-0.14l-0.36-0.13c-0.2-0.07-0.3-0.22-0.3-0.45v-0.06
				c0-0.3,0.22-0.42,0.67-0.42C77.56,71.39,77.71,71.4,77.86,71.43z"/>
			<path class="st2" d="M79.26,70.95c0.03-0.01,0.05,0.01,0.05,0.04v0.42h0.27c0.03,0,0.05,0.01,0.05,0.04v0.23
				c0,0.03-0.02,0.04-0.05,0.04h-0.27v0.8c0,0.12,0.04,0.15,0.17,0.15h0.12c0.03,0,0.05,0.01,0.05,0.04v0.25
				c0,0.03-0.01,0.05-0.05,0.06c-0.09,0.02-0.17,0.03-0.25,0.03c-0.13,0-0.18,0-0.28-0.03c-0.14-0.04-0.19-0.13-0.21-0.35v-0.95
				H78.7c-0.03,0-0.05-0.01-0.05-0.04v-0.23c0-0.03,0.02-0.04,0.05-0.04h0.17v-0.33c0-0.03,0.01-0.04,0.04-0.05L79.26,70.95z"/>
			<path class="st2" d="M80.81,71.42c0.03,0.01,0.05,0.03,0.05,0.06v0.24c0,0.03-0.02,0.04-0.05,0.04h-0.28
				c-0.16,0-0.21,0.03-0.21,0.15V73c0,0.03-0.01,0.05-0.04,0.05h-0.35c-0.03,0-0.04-0.01-0.04-0.05v-1.2c0-0.14,0.05-0.25,0.11-0.31
				c0.11-0.09,0.26-0.11,0.42-0.11C80.58,71.39,80.71,71.4,80.81,71.42z"/>
			<path class="st2" d="M82.18,71.51c0.1,0.08,0.15,0.21,0.15,0.38v1.02c0,0.05-0.02,0.08-0.06,0.09c-0.18,0.04-0.4,0.06-0.67,0.06
				c-0.25,0-0.37-0.01-0.5-0.08c-0.13-0.07-0.18-0.2-0.18-0.43c0-0.19,0.05-0.31,0.14-0.38c0.1-0.07,0.25-0.1,0.46-0.1h0.37v-0.11
				c0-0.14-0.09-0.2-0.28-0.2h-0.53c-0.03,0-0.04-0.01-0.04-0.04v-0.24c0-0.03,0.01-0.04,0.04-0.05c0.15-0.03,0.33-0.04,0.53-0.04
				C81.89,71.39,82.08,71.43,82.18,71.51z M81.89,72.35h-0.34c-0.15,0-0.21,0.05-0.21,0.18c0,0.14,0.06,0.18,0.25,0.18
				c0.13,0,0.22-0.01,0.29-0.03V72.35z"/>
			<path class="st2" d="M83.97,71.52c0.12,0.11,0.15,0.27,0.15,0.58V73c0,0.03-0.01,0.05-0.05,0.05h-0.35
				c-0.03,0-0.04-0.01-0.04-0.05v-0.8c0-0.22,0-0.31-0.06-0.38c-0.05-0.06-0.1-0.06-0.26-0.06H83.1V73c0,0.03-0.01,0.05-0.04,0.05
				h-0.35c-0.03,0-0.04-0.01-0.04-0.05v-1.52c0-0.04,0.01-0.04,0.04-0.04c0.15-0.03,0.38-0.05,0.7-0.05
				C83.71,71.39,83.86,71.41,83.97,71.52z"/>
			<path class="st2" d="M85.55,71.43c0.03,0.01,0.05,0.02,0.05,0.05v0.22c0,0.03-0.02,0.05-0.05,0.05h-0.53
				c-0.11,0-0.17,0.04-0.17,0.11v0.03c0,0.06,0.05,0.1,0.14,0.14l0.38,0.13c0.24,0.08,0.31,0.22,0.31,0.44v0.05
				c0,0.32-0.22,0.43-0.63,0.43c-0.22,0-0.42-0.01-0.61-0.03c-0.03,0-0.05-0.01-0.05-0.04v-0.24c0-0.03,0.02-0.04,0.05-0.04h0.6
				c0.16,0,0.2-0.02,0.2-0.1v-0.03c0-0.06-0.04-0.09-0.16-0.14l-0.36-0.13c-0.2-0.07-0.3-0.22-0.3-0.45v-0.06
				c0-0.3,0.22-0.42,0.67-0.42C85.25,71.39,85.41,71.4,85.55,71.43z"/>
			<path class="st2" d="M86.9,70.79c0.03,0.01,0.05,0.02,0.05,0.06v0.24c0,0.03-0.02,0.05-0.05,0.05h-0.23
				c-0.12,0-0.16,0.02-0.16,0.11v0.16h0.36c0.03,0,0.04,0.02,0.04,0.05l-0.04,0.25c-0.01,0.03-0.02,0.04-0.05,0.04h-0.3V73
				c0,0.03-0.02,0.05-0.04,0.05h-0.35c-0.03,0-0.04-0.01-0.04-0.05v-1.26h-0.19c-0.03,0-0.05-0.01-0.05-0.04v-0.25
				c0-0.03,0.02-0.04,0.05-0.04h0.19v-0.23c0-0.18,0.06-0.29,0.16-0.35c0.11-0.06,0.2-0.07,0.36-0.07
				C86.69,70.76,86.8,70.77,86.9,70.79z"/>
			<path class="st2" d="M88.33,71.56c0.12,0.13,0.15,0.32,0.15,0.67c0,0.34-0.05,0.56-0.15,0.67c-0.1,0.11-0.3,0.16-0.6,0.16
				c-0.3,0-0.5-0.06-0.6-0.16c-0.1-0.11-0.15-0.33-0.15-0.67c0-0.34,0.05-0.56,0.15-0.67c0.1-0.11,0.3-0.17,0.6-0.17
				C88.05,71.39,88.21,71.43,88.33,71.56z M87.47,71.86c-0.04,0.06-0.06,0.18-0.06,0.37c0,0.19,0.02,0.31,0.06,0.37
				c0.04,0.06,0.12,0.09,0.26,0.09c0.13,0,0.22-0.03,0.26-0.09c0.04-0.06,0.06-0.19,0.06-0.37c0-0.19-0.02-0.31-0.06-0.37
				c-0.04-0.06-0.12-0.09-0.26-0.09C87.6,71.76,87.51,71.79,87.47,71.86z"/>
			<path class="st2" d="M89.7,71.42c0.03,0.01,0.05,0.03,0.05,0.06v0.24c0,0.03-0.02,0.04-0.05,0.04h-0.28
				c-0.16,0-0.21,0.03-0.21,0.15V73c0,0.03-0.01,0.05-0.04,0.05h-0.35c-0.03,0-0.04-0.01-0.04-0.05v-1.2c0-0.14,0.05-0.25,0.11-0.31
				c0.11-0.09,0.26-0.11,0.42-0.11C89.47,71.39,89.6,71.4,89.7,71.42z"/>
			<path class="st2" d="M92.08,71.52c0.09,0.09,0.14,0.25,0.14,0.49l0,0.99c0,0.03-0.01,0.05-0.04,0.05h-0.35
				c-0.03,0-0.04-0.01-0.04-0.05v-0.8c-0.02-0.43-0.03-0.43-0.28-0.44c-0.09,0-0.16,0.01-0.24,0.02c0.03,0.08,0.04,0.18,0.04,0.31
				l0,0.91c0,0.03-0.01,0.05-0.04,0.05h-0.35c-0.03,0-0.04-0.01-0.04-0.05v-0.9c0-0.17-0.01-0.25-0.06-0.29
				c-0.05-0.05-0.09-0.05-0.22-0.05h-0.2V73c0,0.03-0.01,0.05-0.04,0.05H90c-0.03,0-0.04-0.01-0.04-0.05v-1.52
				c0-0.02,0.01-0.04,0.04-0.04c0.15-0.03,0.34-0.05,0.56-0.05c0.22,0,0.4,0.03,0.53,0.09c0.17-0.06,0.34-0.1,0.51-0.1
				C91.83,71.39,91.99,71.43,92.08,71.52z"/>
			<path class="st2" d="M93.83,71.55c0.1,0.11,0.14,0.33,0.15,0.65v0.09c0,0.06-0.02,0.08-0.09,0.08h-0.92
				c0,0.13,0.02,0.21,0.07,0.25c0.04,0.04,0.13,0.06,0.26,0.06h0.52c0.03,0,0.04,0.01,0.04,0.04v0.24c0,0.03-0.01,0.04-0.04,0.05
				c-0.13,0.03-0.32,0.04-0.56,0.04c-0.3,0-0.49-0.06-0.59-0.17c-0.1-0.11-0.15-0.33-0.15-0.67c0-0.34,0.05-0.56,0.15-0.67
				c0.1-0.11,0.29-0.17,0.59-0.17C93.54,71.39,93.73,71.44,93.83,71.55z M92.95,72.09h0.58c0-0.26-0.07-0.33-0.28-0.33
				C93.03,71.76,92.96,71.83,92.95,72.09z"/>
			<path class="st2" d="M96.38,71.52c0.09,0.09,0.14,0.25,0.14,0.49l0,0.99c0,0.03-0.01,0.05-0.04,0.05h-0.35
				c-0.03,0-0.04-0.01-0.04-0.05v-0.8c-0.02-0.43-0.03-0.43-0.28-0.44c-0.09,0-0.16,0.01-0.24,0.02c0.03,0.08,0.04,0.18,0.04,0.31
				l0,0.91c0,0.03-0.01,0.05-0.04,0.05H95.2c-0.03,0-0.04-0.01-0.04-0.05v-0.9c0-0.17-0.01-0.25-0.06-0.29
				c-0.05-0.05-0.09-0.05-0.22-0.05h-0.2V73c0,0.03-0.01,0.05-0.04,0.05h-0.35c-0.03,0-0.04-0.01-0.04-0.05v-1.52
				c0-0.02,0.01-0.04,0.04-0.04c0.15-0.03,0.34-0.05,0.56-0.05c0.22,0,0.4,0.03,0.53,0.09c0.17-0.06,0.34-0.1,0.51-0.1
				C96.12,71.39,96.28,71.43,96.38,71.52z"/>
			<path class="st2" d="M98.15,71.56c0.12,0.13,0.15,0.32,0.15,0.67c0,0.34-0.05,0.56-0.15,0.67c-0.1,0.11-0.3,0.16-0.6,0.16
				c-0.3,0-0.5-0.06-0.6-0.16c-0.1-0.11-0.15-0.33-0.15-0.67c0-0.34,0.05-0.56,0.15-0.67c0.1-0.11,0.3-0.17,0.6-0.17
				C97.87,71.39,98.04,71.43,98.15,71.56z M97.3,71.86c-0.04,0.06-0.06,0.18-0.06,0.37c0,0.19,0.02,0.31,0.06,0.37
				c0.04,0.06,0.12,0.09,0.26,0.09c0.13,0,0.22-0.03,0.26-0.09c0.04-0.06,0.06-0.19,0.06-0.37c0-0.19-0.02-0.31-0.06-0.37
				c-0.04-0.06-0.12-0.09-0.26-0.09C97.42,71.76,97.34,71.79,97.3,71.86z"/>
			<path class="st2" d="M99.7,71.43c0.03,0.01,0.05,0.02,0.05,0.05v0.22c0,0.03-0.02,0.05-0.05,0.05h-0.53
				c-0.11,0-0.17,0.04-0.17,0.11v0.03c0,0.06,0.05,0.1,0.14,0.14l0.38,0.13c0.23,0.08,0.31,0.22,0.31,0.44v0.05
				c0,0.32-0.22,0.43-0.63,0.43c-0.22,0-0.42-0.01-0.61-0.03c-0.03,0-0.05-0.01-0.05-0.04v-0.24c0-0.03,0.02-0.04,0.05-0.04h0.6
				c0.16,0,0.2-0.02,0.2-0.1v-0.03c0-0.06-0.04-0.09-0.16-0.14l-0.36-0.13c-0.2-0.07-0.3-0.22-0.3-0.45v-0.06
				c0-0.3,0.22-0.42,0.67-0.42C99.39,71.39,99.55,71.4,99.7,71.43z"/>
		</g>
		<g>
			<g>
				<path class="st2" d="M73.6,82.03c-0.02-0.09-0.07-0.16-0.16-0.2c-0.05-0.02-0.1-0.03-0.16-0.03c-0.11,0-0.2,0.04-0.27,0.12
					c-0.07,0.08-0.11,0.21-0.11,0.37c0,0.17,0.04,0.29,0.12,0.36c0.08,0.07,0.16,0.1,0.26,0.1c0.1,0,0.17-0.03,0.24-0.08
					c0.06-0.06,0.1-0.13,0.11-0.22h-0.32v-0.23h0.57v0.73H73.7l-0.03-0.17c-0.06,0.06-0.1,0.11-0.15,0.14
					c-0.08,0.05-0.17,0.07-0.28,0.07c-0.18,0-0.33-0.06-0.45-0.19c-0.12-0.13-0.18-0.3-0.18-0.52c0-0.22,0.06-0.4,0.18-0.53
					c0.12-0.13,0.28-0.2,0.48-0.2c0.17,0,0.31,0.04,0.42,0.13c0.11,0.09,0.17,0.2,0.18,0.33H73.6z"/>
				<path class="st2" d="M75.21,82.86c-0.1,0.11-0.25,0.16-0.45,0.16c-0.2,0-0.35-0.05-0.45-0.16c-0.14-0.13-0.21-0.32-0.21-0.56
					c0-0.25,0.07-0.44,0.21-0.56c0.1-0.11,0.25-0.16,0.45-0.16c0.2,0,0.35,0.05,0.45,0.16c0.14,0.13,0.21,0.31,0.21,0.56
					C75.42,82.54,75.35,82.72,75.21,82.86z M75.03,82.65c0.07-0.08,0.1-0.2,0.1-0.36c0-0.15-0.03-0.27-0.1-0.36
					s-0.16-0.13-0.27-0.13s-0.2,0.04-0.27,0.13c-0.07,0.08-0.1,0.2-0.1,0.36c0,0.15,0.03,0.27,0.1,0.36
					c0.07,0.08,0.16,0.13,0.27,0.13S74.97,82.73,75.03,82.65z"/>
				<path class="st2" d="M76.66,81.75c0.04,0.06,0.06,0.13,0.06,0.21c0,0.08-0.02,0.15-0.06,0.2c-0.02,0.03-0.06,0.05-0.1,0.08
					c0.07,0.03,0.12,0.07,0.16,0.12c0.04,0.06,0.05,0.12,0.05,0.2c0,0.08-0.02,0.15-0.06,0.22c-0.03,0.04-0.06,0.08-0.1,0.11
					c-0.04,0.03-0.1,0.06-0.15,0.07c-0.06,0.01-0.12,0.02-0.19,0.02h-0.62v-1.37h0.66C76.47,81.61,76.59,81.66,76.66,81.75z
					 M75.92,81.85v0.3h0.33c0.06,0,0.11-0.01,0.14-0.03c0.04-0.02,0.06-0.06,0.06-0.12c0-0.06-0.02-0.11-0.07-0.13
					c-0.04-0.01-0.1-0.02-0.16-0.02H75.92z M75.92,82.37v0.37h0.33c0.06,0,0.11-0.01,0.14-0.02c0.06-0.03,0.09-0.09,0.09-0.17
					c0-0.07-0.03-0.12-0.09-0.15c-0.03-0.01-0.08-0.02-0.14-0.02H75.92z"/>
				<path class="st2" d="M77.27,82.98h-0.28v-1.37h0.28V82.98z"/>
				<path class="st2" d="M78.55,81.85h-0.72v0.29h0.67v0.24h-0.67v0.35h0.76v0.25h-1.04v-1.37h1V81.85z"/>
				<path class="st2" d="M79.69,81.64c0.05,0.02,0.09,0.05,0.13,0.1c0.03,0.03,0.05,0.07,0.07,0.12c0.02,0.04,0.03,0.09,0.03,0.14
					c0,0.07-0.02,0.13-0.05,0.19c-0.03,0.06-0.09,0.11-0.16,0.13c0.06,0.03,0.11,0.06,0.13,0.11c0.03,0.05,0.04,0.12,0.04,0.21v0.09
					c0,0.06,0,0.1,0.01,0.13c0.01,0.04,0.03,0.06,0.05,0.08v0.03h-0.32c-0.01-0.03-0.01-0.05-0.02-0.07
					c-0.01-0.04-0.01-0.08-0.01-0.12l0-0.13c0-0.09-0.02-0.15-0.05-0.17c-0.03-0.03-0.08-0.04-0.16-0.04H79.1v0.54h-0.28v-1.37h0.65
					C79.57,81.61,79.64,81.62,79.69,81.64z M79.1,81.85v0.37h0.31c0.06,0,0.11-0.01,0.14-0.02c0.05-0.03,0.08-0.08,0.08-0.15
					c0-0.08-0.03-0.14-0.08-0.17c-0.03-0.02-0.07-0.02-0.13-0.02H79.1z"/>
				<path class="st2" d="M80.18,81.61h0.3l0.54,0.95v-0.95h0.27v1.37H81l-0.56-0.97v0.97h-0.27V81.61z"/>
				<path class="st2" d="M82.61,82.86c-0.1,0.11-0.25,0.16-0.45,0.16s-0.35-0.05-0.45-0.16c-0.14-0.13-0.21-0.32-0.21-0.56
					c0-0.25,0.07-0.44,0.21-0.56c0.1-0.11,0.25-0.16,0.45-0.16s0.35,0.05,0.45,0.16c0.14,0.13,0.21,0.31,0.21,0.56
					C82.82,82.54,82.75,82.72,82.61,82.86z M82.43,82.65c0.07-0.08,0.1-0.2,0.1-0.36c0-0.15-0.03-0.27-0.1-0.36
					s-0.16-0.13-0.27-0.13s-0.2,0.04-0.27,0.13c-0.07,0.08-0.1,0.2-0.1,0.36c0,0.15,0.03,0.27,0.1,0.36
					c0.07,0.08,0.16,0.13,0.27,0.13S82.37,82.73,82.43,82.65z"/>
				<path class="st2" d="M84.37,81.64c0.1,0.03,0.17,0.09,0.23,0.17c0.05,0.07,0.08,0.14,0.1,0.22c0.02,0.08,0.03,0.15,0.03,0.23
					c0,0.18-0.04,0.34-0.11,0.46c-0.1,0.17-0.25,0.26-0.46,0.26h-0.59v-1.37h0.59C84.24,81.61,84.31,81.62,84.37,81.64z
					 M83.84,81.85v0.89h0.26c0.14,0,0.23-0.07,0.28-0.2c0.03-0.07,0.04-0.16,0.04-0.26c0-0.14-0.02-0.25-0.07-0.32
					c-0.04-0.07-0.13-0.11-0.26-0.11H83.84z"/>
				<path class="st2" d="M85.95,81.85h-0.72v0.29h0.67v0.24h-0.67v0.35h0.76v0.25h-1.04v-1.37h1V81.85z"/>
				<path class="st2" d="M86.21,81.61h0.29v1.12h0.68v0.25h-0.97V81.61z"/>
				<path class="st2" d="M88.88,81.85h-0.72v0.29h0.67v0.24h-0.67v0.35h0.76v0.25h-1.04v-1.37h1V81.85z"/>
				<path class="st2" d="M89.34,82.55c0.01,0.06,0.03,0.11,0.05,0.14c0.05,0.06,0.13,0.08,0.24,0.08c0.07,0,0.12-0.01,0.17-0.02
					c0.08-0.03,0.12-0.08,0.12-0.16c0-0.05-0.02-0.08-0.06-0.1c-0.04-0.02-0.1-0.05-0.19-0.06l-0.15-0.03
					c-0.15-0.03-0.25-0.07-0.3-0.1c-0.09-0.06-0.14-0.16-0.14-0.3c0-0.12,0.05-0.22,0.14-0.31c0.09-0.08,0.22-0.12,0.4-0.12
					c0.15,0,0.27,0.04,0.37,0.11c0.1,0.08,0.16,0.19,0.16,0.33h-0.28c-0.01-0.08-0.04-0.14-0.11-0.18c-0.05-0.02-0.1-0.03-0.17-0.03
					c-0.08,0-0.14,0.01-0.18,0.04c-0.05,0.03-0.07,0.07-0.07,0.12c0,0.05,0.02,0.09,0.07,0.11c0.03,0.02,0.09,0.04,0.18,0.06
					l0.24,0.06c0.11,0.02,0.18,0.06,0.24,0.1c0.08,0.06,0.12,0.16,0.12,0.28c0,0.12-0.05,0.23-0.15,0.31
					c-0.1,0.08-0.23,0.12-0.41,0.12c-0.18,0-0.32-0.04-0.43-0.12c-0.1-0.08-0.15-0.19-0.15-0.34H89.34z"/>
				<path class="st2" d="M91.4,81.61v0.24h-0.41v1.13H90.7v-1.13h-0.41v-0.24H91.4z"/>
				<path class="st2" d="M91.82,81.61h0.32l0.48,1.37h-0.31l-0.09-0.28h-0.5l-0.09,0.28h-0.3L91.82,81.61z M91.8,82.46h0.35
					l-0.17-0.54L91.8,82.46z"/>
				<path class="st2" d="M93.6,81.64c0.1,0.03,0.17,0.09,0.23,0.17c0.05,0.07,0.08,0.14,0.1,0.22c0.02,0.08,0.03,0.15,0.03,0.23
					c0,0.18-0.04,0.34-0.11,0.46c-0.1,0.17-0.25,0.26-0.46,0.26H92.8v-1.37h0.59C93.48,81.61,93.55,81.62,93.6,81.64z M93.08,81.85
					v0.89h0.26c0.14,0,0.23-0.07,0.28-0.2c0.03-0.07,0.04-0.16,0.04-0.26c0-0.14-0.02-0.25-0.07-0.32
					c-0.04-0.07-0.13-0.11-0.26-0.11H93.08z"/>
				<path class="st2" d="M95.23,82.86c-0.1,0.11-0.25,0.16-0.45,0.16c-0.2,0-0.35-0.05-0.45-0.16c-0.14-0.13-0.21-0.32-0.21-0.56
					c0-0.25,0.07-0.44,0.21-0.56c0.1-0.11,0.25-0.16,0.45-0.16c0.2,0,0.35,0.05,0.45,0.16c0.14,0.13,0.21,0.31,0.21,0.56
					C95.44,82.54,95.37,82.72,95.23,82.86z M95.05,82.65c0.07-0.08,0.1-0.2,0.1-0.36c0-0.15-0.03-0.27-0.1-0.36
					s-0.16-0.13-0.27-0.13s-0.2,0.04-0.27,0.13c-0.07,0.08-0.1,0.2-0.1,0.36c0,0.15,0.03,0.27,0.1,0.36
					c0.07,0.08,0.16,0.13,0.27,0.13S94.98,82.73,95.05,82.65z"/>
			</g>
		</g>
	</g>
	<g>
		<path class="st2" d="M13,78.65c0.03,0.07,0.06,0.12,0.1,0.14c0.04,0.02,0.1,0.04,0.17,0.04h0.34c0.08,0,0.13-0.01,0.17-0.04
			c0.04-0.02,0.07-0.07,0.1-0.15l1.52-4.2c0.01-0.04,0.02-0.07,0.02-0.1c0-0.07-0.05-0.11-0.16-0.11h-0.31
			c-0.13,0-0.22,0.01-0.28,0.04c-0.05,0.03-0.09,0.08-0.12,0.16l-0.91,2.76c-0.05,0.16-0.1,0.32-0.12,0.46
			c-0.03,0.14-0.04,0.21-0.04,0.22h-0.04c0-0.01-0.02-0.09-0.05-0.23c-0.03-0.14-0.07-0.29-0.12-0.45l-0.93-2.76
			c-0.02-0.08-0.06-0.13-0.11-0.16c-0.05-0.03-0.15-0.04-0.28-0.04h-0.32c-0.11,0-0.16,0.04-0.16,0.11c0,0.03,0.01,0.07,0.03,0.1
			L13,78.65z"/>
		<path class="st2" d="M18.23,78.61c0.03-0.05,0.05-0.13,0.05-0.24v-1.63c0-0.41-0.1-0.74-0.31-0.97c-0.21-0.24-0.55-0.35-1.04-0.35
			c-0.33,0-0.6,0.06-0.82,0.17c-0.22,0.12-0.38,0.28-0.49,0.5c-0.03,0.05-0.04,0.09-0.04,0.13c0,0.06,0.05,0.11,0.15,0.16l0.25,0.1
			c0.05,0.02,0.09,0.03,0.11,0.03c0.03,0,0.05-0.01,0.07-0.03c0.02-0.02,0.05-0.05,0.09-0.1c0.14-0.21,0.36-0.31,0.66-0.31
			c0.23,0,0.4,0.05,0.49,0.16c0.1,0.11,0.14,0.27,0.14,0.48v0.19c-0.18-0.02-0.38-0.03-0.61-0.03c-0.34,0-0.62,0.03-0.83,0.1
			c-0.21,0.06-0.36,0.17-0.46,0.31c-0.1,0.14-0.15,0.34-0.15,0.59c0,0.23,0.04,0.42,0.12,0.58c0.08,0.15,0.23,0.27,0.43,0.35
			c0.21,0.08,0.49,0.12,0.85,0.12c0.49,0,0.87-0.06,1.14-0.18C18.13,78.7,18.19,78.65,18.23,78.61z M17.54,78.14
			c0,0.03-0.01,0.05-0.02,0.06c-0.01,0.01-0.03,0.02-0.06,0.03c-0.18,0.04-0.39,0.06-0.63,0.06c-0.23,0-0.38-0.04-0.47-0.11
			c-0.08-0.07-0.13-0.18-0.13-0.32c0-0.15,0.04-0.26,0.13-0.33s0.25-0.11,0.48-0.11c0.16,0,0.35,0.01,0.55,0.03l0.14,0.01V78.14z"/>
		<path class="st2" d="M19.01,76.75c-0.08,0-0.14,0.02-0.17,0.05c-0.03,0.03-0.05,0.09-0.05,0.17v0.28c0,0.08,0.02,0.14,0.05,0.17
			c0.03,0.03,0.09,0.05,0.17,0.05h1.46c0.08,0,0.14-0.02,0.17-0.05c0.03-0.03,0.05-0.09,0.05-0.17v-0.28c0-0.08-0.02-0.14-0.05-0.17
			c-0.03-0.03-0.09-0.05-0.17-0.05H19.01z"/>
		<path class="st2" d="M24.12,75.7c0-0.07-0.01-0.12-0.04-0.15c-0.03-0.03-0.08-0.04-0.15-0.04h-0.35c-0.07,0-0.12,0.01-0.15,0.04
			c-0.03,0.03-0.04,0.08-0.04,0.15v2.29c-0.22,0.06-0.44,0.09-0.65,0.09c-0.23,0-0.41-0.05-0.52-0.16
			c-0.11-0.11-0.17-0.27-0.17-0.48V75.7c0-0.07-0.01-0.12-0.04-0.15c-0.03-0.03-0.08-0.04-0.15-0.04h-0.34
			c-0.07,0-0.12,0.01-0.15,0.04c-0.03,0.03-0.04,0.08-0.04,0.15v1.77c0,0.42,0.11,0.74,0.33,0.96c0.22,0.22,0.55,0.34,0.99,0.34
			c0.25,0,0.5-0.03,0.75-0.09v0.3c0,0.23-0.06,0.4-0.17,0.52c-0.11,0.12-0.28,0.18-0.5,0.18c-0.16,0-0.3-0.03-0.4-0.08
			c-0.1-0.05-0.19-0.14-0.26-0.25c-0.06-0.08-0.12-0.12-0.18-0.12c-0.04,0-0.09,0.02-0.15,0.05l-0.24,0.14
			c-0.09,0.05-0.13,0.11-0.13,0.17c0,0.04,0.02,0.09,0.06,0.15c0.24,0.41,0.68,0.62,1.32,0.62c0.48,0,0.83-0.12,1.05-0.37
			s0.34-0.59,0.34-1.04V75.7z"/>
		<path class="st2" d="M24.78,76.75c-0.08,0-0.14,0.02-0.17,0.05c-0.03,0.03-0.05,0.09-0.05,0.17v0.28c0,0.08,0.02,0.14,0.05,0.17
			c0.03,0.03,0.09,0.05,0.17,0.05h1.46c0.08,0,0.14-0.02,0.17-0.05c0.03-0.03,0.05-0.09,0.05-0.17v-0.28c0-0.08-0.02-0.14-0.05-0.17
			c-0.03-0.03-0.09-0.05-0.17-0.05H24.78z"/>
		<path class="st2" d="M28.78,78.79c0.04-0.02,0.07-0.07,0.1-0.15l1.52-4.2c0.01-0.04,0.02-0.07,0.02-0.1
			c0-0.07-0.05-0.11-0.16-0.11h-0.31c-0.13,0-0.22,0.01-0.28,0.04c-0.05,0.03-0.09,0.08-0.12,0.16l-0.91,2.76
			c-0.05,0.16-0.1,0.32-0.12,0.46c-0.03,0.14-0.04,0.21-0.04,0.22h-0.04c0-0.01-0.02-0.09-0.05-0.23c-0.03-0.14-0.07-0.29-0.12-0.45
			l-0.93-2.76c-0.02-0.08-0.06-0.13-0.11-0.16c-0.05-0.03-0.15-0.04-0.28-0.04h-0.32c-0.11,0-0.16,0.04-0.16,0.11
			c0,0.03,0.01,0.07,0.03,0.1l1.52,4.21c0.03,0.07,0.06,0.12,0.1,0.14c0.04,0.02,0.1,0.04,0.17,0.04h0.34
			C28.68,78.83,28.74,78.82,28.78,78.79z"/>
		<path class="st2" d="M31.89,78.92c0.66,0,1.12-0.21,1.37-0.62c0.03-0.05,0.05-0.1,0.05-0.16c0-0.07-0.04-0.13-0.13-0.17
			l-0.22-0.12c-0.06-0.03-0.11-0.05-0.15-0.05c-0.05,0-0.11,0.04-0.18,0.13c-0.14,0.23-0.39,0.34-0.75,0.34
			c-0.23,0-0.41-0.06-0.54-0.17c-0.12-0.11-0.19-0.27-0.19-0.48v-0.23h1.92c0.1,0,0.17-0.02,0.22-0.07
			c0.04-0.05,0.06-0.12,0.06-0.21v-0.38c0-0.38-0.12-0.7-0.37-0.95c-0.25-0.25-0.61-0.37-1.09-0.37c-0.48,0-0.84,0.12-1.09,0.36
			c-0.25,0.24-0.38,0.58-0.38,1.02v0.74c0,0.42,0.12,0.76,0.36,1.01C31.03,78.79,31.4,78.92,31.89,78.92z M31.17,76.69
			c0-0.2,0.06-0.36,0.19-0.47c0.13-0.11,0.31-0.17,0.55-0.17s0.42,0.06,0.54,0.17c0.12,0.11,0.19,0.27,0.19,0.47v0.16h-1.46V76.69z"
			/>
		<path class="st2" d="M36.72,78.63v-1.92c0-0.42-0.11-0.74-0.33-0.96c-0.22-0.22-0.55-0.34-0.99-0.34c-0.47,0-0.88,0.07-1.24,0.22
			c-0.1,0.04-0.17,0.09-0.2,0.14c-0.03,0.05-0.05,0.13-0.05,0.23v2.63c0,0.07,0.01,0.13,0.04,0.16c0.03,0.03,0.08,0.05,0.15,0.05
			h0.34c0.07,0,0.12-0.02,0.15-0.05c0.03-0.03,0.04-0.08,0.04-0.16v-2.38c0-0.03,0.01-0.05,0.04-0.06c0.2-0.06,0.41-0.08,0.61-0.08
			c0.23,0,0.4,0.05,0.52,0.16c0.11,0.1,0.17,0.26,0.17,0.48v1.9c0,0.07,0.01,0.13,0.04,0.16c0.03,0.03,0.08,0.05,0.15,0.05h0.35
			c0.07,0,0.12-0.02,0.15-0.05C36.7,78.75,36.72,78.7,36.72,78.63z"/>
		<path class="st2" d="M13.41,83.49c-0.03,0.02-0.06,0.03-0.09,0.04c-0.03,0.01-0.06,0.01-0.1,0.01c-0.06,0-0.11-0.01-0.16-0.04
			c-0.05-0.02-0.1-0.06-0.13-0.11l-0.15,0.14c0.05,0.07,0.11,0.12,0.19,0.15c0.08,0.03,0.16,0.05,0.25,0.05
			c0.07,0,0.13-0.01,0.19-0.03c0.06-0.02,0.11-0.05,0.15-0.09c0.04-0.04,0.08-0.08,0.1-0.14c0.03-0.05,0.04-0.12,0.04-0.18
			c0-0.08-0.02-0.15-0.05-0.2c-0.03-0.05-0.08-0.09-0.13-0.12s-0.1-0.05-0.16-0.07c-0.06-0.02-0.11-0.03-0.16-0.05
			c-0.05-0.02-0.09-0.05-0.13-0.08c-0.03-0.03-0.05-0.08-0.05-0.14c0-0.02,0-0.04,0.01-0.07c0.01-0.03,0.02-0.05,0.04-0.07
			c0.02-0.02,0.05-0.04,0.08-0.05c0.03-0.01,0.08-0.02,0.13-0.02c0.05,0,0.1,0.01,0.15,0.03c0.04,0.02,0.08,0.05,0.1,0.09l0.15-0.14
			c-0.05-0.06-0.11-0.11-0.18-0.13c-0.07-0.02-0.14-0.03-0.22-0.03c-0.08,0-0.15,0.01-0.21,0.04c-0.06,0.03-0.11,0.06-0.14,0.1
			c-0.04,0.04-0.07,0.08-0.08,0.13c-0.02,0.05-0.03,0.09-0.03,0.13c0,0.09,0.02,0.16,0.05,0.22c0.03,0.05,0.08,0.1,0.13,0.13
			c0.05,0.03,0.1,0.06,0.16,0.07c0.06,0.02,0.11,0.04,0.16,0.06c0.05,0.02,0.09,0.04,0.13,0.07c0.03,0.03,0.05,0.07,0.05,0.12
			c0,0.04-0.01,0.07-0.03,0.1C13.46,83.45,13.44,83.47,13.41,83.49z"/>
		<path class="st2" d="M14.16,82.42c0-0.04-0.01-0.07-0.04-0.09c-0.03-0.03-0.06-0.04-0.09-0.04c-0.04,0-0.07,0.01-0.09,0.04
			c-0.03,0.03-0.04,0.06-0.04,0.09c0,0.04,0.01,0.07,0.04,0.09c0.03,0.03,0.06,0.04,0.09,0.04c0.03,0,0.07-0.01,0.09-0.04
			C14.15,82.48,14.16,82.45,14.16,82.42z"/>
		<rect x="13.95" y="82.76" class="st2" width="0.18" height="0.94"/>
		<path class="st2" d="M15.02,83.56c0.02-0.04,0.03-0.08,0.03-0.14c0-0.04-0.01-0.08-0.02-0.11c-0.01-0.03-0.03-0.06-0.06-0.08
			c-0.02-0.02-0.05-0.04-0.09-0.05s-0.07-0.02-0.11-0.03c-0.02,0-0.04-0.01-0.07-0.01c-0.03-0.01-0.05-0.01-0.08-0.02
			s-0.04-0.02-0.06-0.04c-0.02-0.02-0.03-0.04-0.03-0.07c0-0.03,0.02-0.06,0.05-0.08c0.03-0.02,0.07-0.03,0.11-0.03
			c0.04,0,0.08,0.01,0.11,0.03c0.03,0.02,0.06,0.04,0.08,0.07l0.14-0.11c-0.03-0.06-0.08-0.1-0.14-0.12s-0.12-0.04-0.18-0.04
			c-0.04,0-0.09,0.01-0.13,0.02c-0.04,0.01-0.08,0.03-0.11,0.05s-0.06,0.05-0.08,0.09c-0.02,0.04-0.03,0.08-0.03,0.13
			c0,0.05,0.01,0.08,0.02,0.11c0.02,0.03,0.04,0.06,0.06,0.08c0.03,0.02,0.06,0.04,0.09,0.05c0.03,0.01,0.07,0.02,0.11,0.03
			c0.02,0,0.04,0.01,0.07,0.01c0.03,0.01,0.05,0.01,0.07,0.02c0.02,0.01,0.04,0.02,0.06,0.04c0.02,0.02,0.02,0.04,0.02,0.07
			c0,0.02-0.01,0.04-0.02,0.05c-0.01,0.02-0.03,0.03-0.04,0.04c-0.02,0.01-0.04,0.02-0.06,0.02c-0.02,0-0.05,0.01-0.07,0.01
			c-0.05,0-0.09-0.01-0.13-0.03c-0.03-0.02-0.07-0.05-0.1-0.08l-0.13,0.11c0.05,0.06,0.1,0.11,0.15,0.13
			c0.06,0.02,0.12,0.04,0.2,0.04c0.05,0,0.09-0.01,0.14-0.02c0.04-0.01,0.08-0.03,0.12-0.05C14.97,83.63,15,83.6,15.02,83.56z"/>
		<path class="st2" d="M15.64,83.55c-0.03,0-0.06-0.01-0.08-0.02c-0.02-0.01-0.03-0.03-0.04-0.05c-0.01-0.02-0.01-0.04-0.01-0.07
			c0-0.03,0-0.05,0-0.08v-0.43h0.25v-0.15h-0.25v-0.26h-0.18v0.26h-0.2v0.15h0.2v0.49c0,0.04,0,0.08,0,0.11
			c0,0.04,0.01,0.07,0.03,0.1c0.02,0.03,0.04,0.06,0.08,0.07c0.04,0.02,0.09,0.03,0.16,0.03c0.02,0,0.04,0,0.08-0.01
			c0.03,0,0.06-0.01,0.08-0.02v-0.16c-0.02,0.01-0.04,0.02-0.06,0.02C15.68,83.55,15.66,83.55,15.64,83.55z"/>
		<path class="st2" d="M16.75,82.89c-0.04-0.05-0.08-0.09-0.14-0.11c-0.06-0.03-0.13-0.04-0.21-0.04c-0.07,0-0.13,0.01-0.19,0.04
			c-0.06,0.03-0.11,0.06-0.15,0.1c-0.04,0.04-0.08,0.1-0.1,0.16c-0.02,0.06-0.04,0.13-0.04,0.2c0,0.07,0.01,0.14,0.03,0.2
			c0.02,0.06,0.05,0.11,0.09,0.16s0.09,0.08,0.15,0.1c0.06,0.03,0.12,0.04,0.2,0.04c0.18,0,0.31-0.06,0.41-0.19l-0.13-0.1
			c-0.03,0.04-0.07,0.08-0.11,0.1c-0.04,0.03-0.09,0.04-0.14,0.04c-0.04,0-0.08-0.01-0.12-0.02c-0.04-0.01-0.07-0.03-0.1-0.06
			c-0.03-0.02-0.05-0.05-0.07-0.09c-0.02-0.03-0.03-0.07-0.03-0.11h0.74v-0.06c0-0.06-0.01-0.12-0.02-0.18S16.79,82.94,16.75,82.89z
			 M16.12,83.15c0-0.03,0.01-0.06,0.02-0.1c0.01-0.03,0.03-0.06,0.06-0.09c0.02-0.03,0.05-0.05,0.09-0.06
			c0.04-0.02,0.07-0.02,0.12-0.02c0.04,0,0.08,0.01,0.12,0.02c0.03,0.01,0.06,0.03,0.08,0.06c0.02,0.02,0.04,0.05,0.05,0.09
			c0.01,0.03,0.02,0.07,0.02,0.11H16.12z"/>
		<path class="st2" d="M18.19,82.92c0.03,0.02,0.05,0.04,0.06,0.06c0.01,0.03,0.02,0.05,0.03,0.09c0,0.03,0.01,0.07,0.01,0.1v0.52
			h0.18v-0.55c0-0.05,0-0.1-0.01-0.15c-0.01-0.05-0.03-0.09-0.05-0.13c-0.03-0.04-0.06-0.07-0.11-0.09
			c-0.05-0.02-0.1-0.04-0.18-0.04c-0.06,0-0.11,0.01-0.17,0.04c-0.05,0.03-0.1,0.07-0.13,0.13c-0.03-0.06-0.07-0.1-0.11-0.13
			c-0.05-0.03-0.1-0.04-0.17-0.04c-0.04,0-0.08,0.01-0.11,0.02c-0.03,0.01-0.06,0.03-0.09,0.05c-0.03,0.02-0.05,0.04-0.06,0.06
			c-0.02,0.02-0.03,0.04-0.03,0.05h0v-0.15h-0.16v0.94h0.18v-0.49c0-0.05,0.01-0.1,0.02-0.14c0.01-0.04,0.03-0.07,0.05-0.1
			c0.02-0.03,0.05-0.04,0.08-0.06c0.03-0.01,0.06-0.02,0.09-0.02c0.04,0,0.08,0.01,0.1,0.02c0.03,0.02,0.04,0.04,0.06,0.06
			c0.01,0.03,0.02,0.06,0.03,0.1c0,0.04,0.01,0.08,0.01,0.12v0.49h0.18v-0.51c0-0.08,0.02-0.15,0.05-0.2
			c0.04-0.05,0.1-0.08,0.18-0.08C18.13,82.9,18.16,82.91,18.19,82.92z"/>
		<path class="st2" d="M19.48,83.53v-0.48c0-0.04-0.01-0.08-0.02-0.12c-0.01-0.04-0.04-0.07-0.07-0.1
			c-0.03-0.03-0.07-0.05-0.12-0.07c-0.05-0.02-0.11-0.03-0.17-0.03c-0.06,0-0.13,0.01-0.19,0.03s-0.12,0.06-0.17,0.1l0.1,0.11
			c0.02-0.01,0.03-0.02,0.05-0.04s0.04-0.02,0.06-0.03s0.04-0.02,0.07-0.02c0.03-0.01,0.05-0.01,0.09-0.01
			c0.04,0,0.07,0.01,0.1,0.02c0.03,0.01,0.05,0.03,0.07,0.05c0.02,0.02,0.03,0.04,0.04,0.06c0.01,0.02,0.01,0.05,0.01,0.07v0.04
			h-0.13c-0.07,0-0.14,0.01-0.2,0.02c-0.06,0.01-0.12,0.03-0.16,0.06c-0.05,0.03-0.08,0.06-0.11,0.1c-0.03,0.04-0.04,0.09-0.04,0.15
			c0,0.05,0.01,0.09,0.03,0.12c0.02,0.04,0.04,0.06,0.07,0.09c0.03,0.02,0.06,0.04,0.1,0.05c0.04,0.01,0.08,0.02,0.12,0.02
			c0.07,0,0.13-0.01,0.18-0.04c0.05-0.03,0.1-0.07,0.14-0.13h0c0,0.05,0,0.1,0.01,0.14h0.16c0-0.03,0-0.05-0.01-0.08
			C19.48,83.59,19.48,83.56,19.48,83.53z M19.32,83.3c0,0.03,0,0.06-0.01,0.1c-0.01,0.03-0.02,0.06-0.04,0.09
			c-0.02,0.03-0.05,0.05-0.08,0.06c-0.03,0.02-0.07,0.02-0.12,0.02c-0.06,0-0.11-0.01-0.14-0.04c-0.04-0.02-0.05-0.06-0.05-0.12
			c0-0.04,0.01-0.07,0.03-0.09c0.02-0.02,0.05-0.04,0.09-0.06c0.04-0.01,0.08-0.02,0.12-0.03c0.04,0,0.09-0.01,0.13-0.01h0.09V83.3z
			"/>
		<polygon class="st2" points="21.56,82.54 21.56,83.7 21.74,83.7 21.74,82.29 21.46,82.29 21.03,83.36 21.02,83.36 20.59,82.29 
			20.31,82.29 20.31,83.7 20.49,83.7 20.49,82.54 20.5,82.54 20.96,83.7 21.09,83.7 21.55,82.54 		"/>
		<path class="st2" d="M22.91,83.23c0-0.06-0.01-0.12-0.02-0.18c-0.02-0.06-0.04-0.11-0.08-0.16c-0.04-0.05-0.08-0.09-0.14-0.11
			c-0.06-0.03-0.13-0.04-0.21-0.04c-0.07,0-0.13,0.01-0.19,0.04c-0.06,0.03-0.11,0.06-0.15,0.1c-0.04,0.04-0.08,0.1-0.1,0.16
			c-0.02,0.06-0.04,0.13-0.04,0.2c0,0.07,0.01,0.14,0.03,0.2c0.02,0.06,0.05,0.11,0.09,0.16s0.09,0.08,0.15,0.1
			c0.06,0.03,0.12,0.04,0.2,0.04c0.18,0,0.31-0.06,0.41-0.19l-0.13-0.1c-0.03,0.04-0.07,0.08-0.11,0.1
			c-0.04,0.03-0.09,0.04-0.14,0.04c-0.04,0-0.08-0.01-0.12-0.02c-0.04-0.01-0.07-0.03-0.1-0.06c-0.03-0.02-0.05-0.05-0.07-0.09
			c-0.02-0.03-0.03-0.07-0.03-0.11h0.74V83.23z M22.17,83.15c0-0.03,0.01-0.06,0.02-0.1c0.01-0.03,0.03-0.06,0.06-0.09
			c0.02-0.03,0.05-0.05,0.09-0.06c0.04-0.02,0.07-0.02,0.12-0.02c0.04,0,0.08,0.01,0.12,0.02c0.03,0.01,0.06,0.03,0.08,0.06
			c0.02,0.02,0.04,0.05,0.05,0.09c0.01,0.03,0.02,0.07,0.02,0.11H22.17z"/>
		<path class="st2" d="M23.5,83.55c-0.03,0-0.06-0.01-0.08-0.02c-0.02-0.01-0.03-0.03-0.04-0.05c-0.01-0.02-0.01-0.04-0.01-0.07
			c0-0.03,0-0.05,0-0.08v-0.43h0.25v-0.15h-0.25v-0.26h-0.18v0.26h-0.2v0.15h0.2v0.49c0,0.04,0,0.08,0,0.11
			c0,0.04,0.01,0.07,0.03,0.1c0.02,0.03,0.04,0.06,0.08,0.07c0.04,0.02,0.09,0.03,0.16,0.03c0.02,0,0.04,0,0.08-0.01
			c0.03,0,0.06-0.01,0.08-0.02v-0.16c-0.02,0.01-0.04,0.02-0.06,0.02C23.54,83.55,23.52,83.55,23.5,83.55z"/>
		<path class="st2" d="M23.84,82.76v0.94h0.18v-0.47c0-0.1,0.02-0.18,0.07-0.23c0.05-0.05,0.11-0.07,0.2-0.07c0.01,0,0.03,0,0.04,0
			c0.01,0,0.03,0.01,0.04,0.01l0.01-0.19c-0.02-0.01-0.05-0.01-0.08-0.01c-0.03,0-0.06,0-0.09,0.01c-0.03,0.01-0.05,0.02-0.08,0.03
			c-0.02,0.01-0.05,0.03-0.07,0.05c-0.02,0.02-0.04,0.04-0.05,0.07h0v-0.14H23.84z"/>
		<path class="st2" d="M25.5,83.23c0-0.07-0.01-0.13-0.04-0.19c-0.03-0.06-0.06-0.11-0.1-0.16c-0.04-0.04-0.1-0.08-0.16-0.11
			c-0.06-0.03-0.12-0.04-0.19-0.04c-0.07,0-0.13,0.01-0.19,0.04c-0.06,0.03-0.11,0.06-0.16,0.11c-0.04,0.05-0.08,0.1-0.1,0.16
			c-0.03,0.06-0.04,0.12-0.04,0.19s0.01,0.13,0.04,0.19c0.03,0.06,0.06,0.11,0.1,0.16c0.04,0.04,0.1,0.08,0.16,0.11
			c0.06,0.03,0.12,0.04,0.19,0.04c0.07,0,0.13-0.01,0.19-0.04c0.06-0.03,0.11-0.06,0.16-0.11c0.04-0.04,0.08-0.1,0.1-0.16
			C25.48,83.36,25.5,83.3,25.5,83.23z M25.29,83.36c-0.01,0.04-0.03,0.07-0.06,0.1c-0.03,0.03-0.06,0.05-0.1,0.07
			c-0.04,0.02-0.08,0.02-0.13,0.02s-0.09-0.01-0.13-0.02c-0.04-0.02-0.07-0.04-0.1-0.07c-0.03-0.03-0.05-0.06-0.06-0.1
			c-0.01-0.04-0.02-0.08-0.02-0.13c0-0.05,0.01-0.09,0.02-0.13c0.01-0.04,0.03-0.07,0.06-0.1c0.03-0.03,0.06-0.05,0.1-0.07
			c0.04-0.02,0.08-0.02,0.13-0.02s0.09,0.01,0.13,0.02c0.04,0.02,0.07,0.04,0.1,0.07c0.03,0.03,0.05,0.06,0.06,0.1
			c0.01,0.04,0.02,0.08,0.02,0.13C25.31,83.27,25.3,83.32,25.29,83.36z"/>
		<path class="st2" d="M26.56,82.88c-0.04-0.05-0.09-0.08-0.15-0.11c-0.06-0.03-0.12-0.04-0.19-0.04c-0.06,0-0.12,0.01-0.18,0.04
			c-0.06,0.03-0.11,0.07-0.14,0.12h0v-0.14h-0.18v1.5h0.18v-0.69h0c0.03,0.05,0.08,0.09,0.13,0.12c0.06,0.03,0.12,0.04,0.19,0.04
			c0.07,0,0.14-0.01,0.19-0.04c0.06-0.03,0.11-0.06,0.15-0.1s0.07-0.1,0.09-0.16c0.02-0.06,0.03-0.13,0.03-0.2
			c0-0.07-0.01-0.13-0.03-0.19C26.63,82.97,26.6,82.92,26.56,82.88z M26.48,83.36c-0.01,0.04-0.03,0.07-0.06,0.1
			s-0.06,0.05-0.1,0.07c-0.04,0.02-0.08,0.02-0.13,0.02s-0.09-0.01-0.13-0.02c-0.04-0.02-0.07-0.04-0.1-0.07
			c-0.03-0.03-0.05-0.06-0.06-0.1c-0.01-0.04-0.02-0.08-0.02-0.13c0-0.05,0.01-0.09,0.02-0.13c0.01-0.04,0.03-0.07,0.06-0.1
			c0.03-0.03,0.06-0.05,0.1-0.07c0.04-0.02,0.08-0.02,0.13-0.02s0.09,0.01,0.13,0.02c0.04,0.02,0.07,0.04,0.1,0.07
			s0.05,0.06,0.06,0.1c0.01,0.04,0.02,0.08,0.02,0.13C26.5,83.27,26.49,83.32,26.48,83.36z"/>
		<path class="st2" d="M27.16,83.68c0.06,0.03,0.12,0.04,0.19,0.04c0.07,0,0.13-0.01,0.19-0.04c0.06-0.03,0.11-0.06,0.16-0.11
			c0.04-0.04,0.08-0.1,0.1-0.16c0.03-0.06,0.04-0.12,0.04-0.19s-0.01-0.13-0.04-0.19c-0.03-0.06-0.06-0.11-0.1-0.16
			c-0.04-0.04-0.1-0.08-0.16-0.11c-0.06-0.03-0.12-0.04-0.19-0.04c-0.07,0-0.13,0.01-0.19,0.04c-0.06,0.03-0.11,0.06-0.16,0.11
			c-0.04,0.05-0.08,0.1-0.1,0.16c-0.03,0.06-0.04,0.12-0.04,0.19s0.01,0.13,0.04,0.19c0.03,0.06,0.06,0.11,0.1,0.16
			C27.05,83.62,27.1,83.66,27.16,83.68z M27.07,83.09c0.01-0.04,0.03-0.07,0.06-0.1c0.03-0.03,0.06-0.05,0.1-0.07
			c0.04-0.02,0.08-0.02,0.13-0.02s0.09,0.01,0.13,0.02c0.04,0.02,0.07,0.04,0.1,0.07c0.03,0.03,0.05,0.06,0.06,0.1
			c0.01,0.04,0.02,0.08,0.02,0.13c0,0.05-0.01,0.09-0.02,0.13c-0.01,0.04-0.03,0.07-0.06,0.1c-0.03,0.03-0.06,0.05-0.1,0.07
			c-0.04,0.02-0.08,0.02-0.13,0.02s-0.09-0.01-0.13-0.02c-0.04-0.02-0.07-0.04-0.1-0.07c-0.03-0.03-0.05-0.06-0.06-0.1
			c-0.01-0.04-0.02-0.08-0.02-0.13C27.05,83.18,27.05,83.13,27.07,83.09z"/>
		<rect x="28.07" y="82.2" class="st2" width="0.18" height="1.5"/>
		<rect x="28.54" y="82.76" class="st2" width="0.18" height="0.94"/>
		<path class="st2" d="M28.72,82.51c0.03-0.03,0.04-0.06,0.04-0.09c0-0.04-0.01-0.07-0.04-0.09c-0.03-0.03-0.06-0.04-0.09-0.04
			c-0.04,0-0.07,0.01-0.09,0.04c-0.03,0.03-0.04,0.06-0.04,0.09c0,0.04,0.01,0.07,0.04,0.09c0.03,0.03,0.06,0.04,0.09,0.04
			C28.66,82.55,28.69,82.54,28.72,82.51z"/>
		<path class="st2" d="M29.37,83.55c-0.03,0-0.06-0.01-0.08-0.02c-0.02-0.01-0.03-0.03-0.04-0.05c-0.01-0.02-0.01-0.04-0.01-0.07
			c0-0.03,0-0.05,0-0.08v-0.43h0.25v-0.15h-0.25v-0.26h-0.18v0.26h-0.2v0.15h0.2v0.49c0,0.04,0,0.08,0,0.11
			c0,0.04,0.01,0.07,0.03,0.1c0.02,0.03,0.04,0.06,0.08,0.07c0.04,0.02,0.09,0.03,0.16,0.03c0.02,0,0.04,0,0.08-0.01
			c0.03,0,0.06-0.01,0.08-0.02v-0.16c-0.02,0.01-0.04,0.02-0.06,0.02C29.41,83.55,29.39,83.55,29.37,83.55z"/>
		<path class="st2" d="M30.18,83.11c-0.07,0-0.14,0.01-0.2,0.02c-0.06,0.01-0.12,0.03-0.16,0.06c-0.05,0.03-0.08,0.06-0.11,0.1
			c-0.03,0.04-0.04,0.09-0.04,0.15c0,0.05,0.01,0.09,0.03,0.12c0.02,0.04,0.04,0.06,0.07,0.09c0.03,0.02,0.06,0.04,0.1,0.05
			c0.04,0.01,0.08,0.02,0.12,0.02c0.07,0,0.13-0.01,0.18-0.04c0.05-0.03,0.1-0.07,0.14-0.13h0c0,0.05,0,0.1,0.01,0.14h0.16
			c0-0.03,0-0.05-0.01-0.08c0-0.03,0-0.06,0-0.09v-0.48c0-0.04-0.01-0.08-0.02-0.12c-0.01-0.04-0.04-0.07-0.07-0.1
			c-0.03-0.03-0.07-0.05-0.12-0.07c-0.05-0.02-0.11-0.03-0.17-0.03c-0.06,0-0.13,0.01-0.19,0.03s-0.12,0.06-0.17,0.1l0.1,0.11
			c0.02-0.01,0.03-0.02,0.05-0.04s0.04-0.02,0.06-0.03s0.04-0.02,0.07-0.02c0.03-0.01,0.05-0.01,0.09-0.01
			c0.04,0,0.07,0.01,0.1,0.02c0.03,0.01,0.05,0.03,0.07,0.05c0.02,0.02,0.03,0.04,0.04,0.06c0.01,0.02,0.01,0.05,0.01,0.07v0.04
			H30.18z M30.31,83.3c0,0.03,0,0.06-0.01,0.1c-0.01,0.03-0.02,0.06-0.04,0.09c-0.02,0.03-0.05,0.05-0.08,0.06
			c-0.03,0.02-0.07,0.02-0.12,0.02c-0.06,0-0.11-0.01-0.14-0.04c-0.04-0.02-0.05-0.06-0.05-0.12c0-0.04,0.01-0.07,0.03-0.09
			c0.02-0.02,0.05-0.04,0.09-0.06c0.04-0.01,0.08-0.02,0.12-0.03c0.04,0,0.09-0.01,0.13-0.01h0.09V83.3z"/>
		<path class="st2" d="M31.44,82.82c-0.03-0.03-0.07-0.05-0.11-0.06c-0.04-0.01-0.08-0.02-0.13-0.02c-0.07,0-0.13,0.02-0.19,0.05
			c-0.05,0.03-0.09,0.07-0.11,0.12h0v-0.14h-0.18v0.94h0.18v-0.48c0-0.05,0.01-0.1,0.02-0.14c0.01-0.04,0.03-0.07,0.05-0.1
			c0.02-0.03,0.05-0.04,0.08-0.06c0.03-0.01,0.06-0.02,0.1-0.02c0.03,0,0.05,0,0.08,0.01c0.03,0.01,0.05,0.02,0.07,0.04
			c0.02,0.02,0.04,0.04,0.05,0.08c0.01,0.03,0.02,0.07,0.02,0.11v0.56h0.18v-0.61c0-0.06-0.01-0.12-0.03-0.16
			C31.5,82.88,31.47,82.85,31.44,82.82z"/>
		<path class="st2" d="M32.6,83.58c0.04-0.04,0.08-0.1,0.1-0.16c0.03-0.06,0.04-0.12,0.04-0.19s-0.01-0.13-0.04-0.19
			c-0.03-0.06-0.06-0.11-0.1-0.16c-0.04-0.04-0.1-0.08-0.16-0.11c-0.06-0.03-0.12-0.04-0.19-0.04c-0.07,0-0.13,0.01-0.19,0.04
			c-0.06,0.03-0.11,0.06-0.16,0.11c-0.04,0.05-0.08,0.1-0.1,0.16c-0.03,0.06-0.04,0.12-0.04,0.19s0.01,0.13,0.04,0.19
			c0.03,0.06,0.06,0.11,0.1,0.16c0.04,0.04,0.1,0.08,0.16,0.11c0.06,0.03,0.12,0.04,0.19,0.04c0.07,0,0.13-0.01,0.19-0.04
			C32.5,83.66,32.56,83.62,32.6,83.58z M32.25,83.55c-0.05,0-0.09-0.01-0.13-0.02c-0.04-0.02-0.07-0.04-0.1-0.07
			c-0.03-0.03-0.05-0.06-0.06-0.1c-0.01-0.04-0.02-0.08-0.02-0.13c0-0.05,0.01-0.09,0.02-0.13c0.01-0.04,0.03-0.07,0.06-0.1
			c0.03-0.03,0.06-0.05,0.1-0.07c0.04-0.02,0.08-0.02,0.13-0.02c0.05,0,0.09,0.01,0.13,0.02c0.04,0.02,0.07,0.04,0.1,0.07
			c0.03,0.03,0.05,0.06,0.06,0.1c0.01,0.04,0.02,0.08,0.02,0.13c0,0.05-0.01,0.09-0.02,0.13c-0.01,0.04-0.03,0.07-0.06,0.1
			c-0.03,0.03-0.06,0.05-0.1,0.07C32.34,83.55,32.3,83.55,32.25,83.55z"/>
		<path class="st2" d="M33.84,83.68c0.06-0.03,0.11-0.07,0.14-0.12h0v0.14h0.18v-1.5h-0.18v0.69h0c-0.03-0.05-0.08-0.09-0.13-0.12
			c-0.06-0.03-0.12-0.04-0.19-0.04c-0.07,0-0.14,0.01-0.19,0.04c-0.06,0.03-0.11,0.06-0.15,0.1c-0.04,0.04-0.07,0.1-0.09,0.16
			c-0.02,0.06-0.03,0.13-0.03,0.2c0,0.07,0.01,0.13,0.03,0.19c0.02,0.06,0.05,0.11,0.09,0.16c0.04,0.05,0.09,0.08,0.15,0.11
			c0.06,0.03,0.12,0.04,0.19,0.04C33.72,83.72,33.78,83.71,33.84,83.68z M33.45,83.46c-0.03-0.03-0.05-0.06-0.06-0.1
			s-0.02-0.08-0.02-0.13c0-0.05,0.01-0.09,0.02-0.13c0.01-0.04,0.03-0.07,0.06-0.1c0.03-0.03,0.06-0.05,0.1-0.07
			c0.04-0.02,0.08-0.02,0.13-0.02c0.05,0,0.09,0.01,0.13,0.02c0.04,0.02,0.07,0.04,0.1,0.07c0.03,0.03,0.05,0.06,0.06,0.1
			c0.01,0.04,0.02,0.08,0.02,0.13c0,0.05-0.01,0.09-0.02,0.13s-0.03,0.07-0.06,0.1c-0.03,0.03-0.06,0.05-0.1,0.07
			c-0.04,0.02-0.08,0.02-0.13,0.02c-0.05,0-0.09-0.01-0.13-0.02C33.51,83.51,33.48,83.49,33.45,83.46z"/>
		<path class="st2" d="M35.25,83.53l-0.13-0.1c-0.03,0.04-0.07,0.08-0.11,0.1c-0.04,0.03-0.09,0.04-0.14,0.04
			c-0.04,0-0.08-0.01-0.12-0.02c-0.04-0.01-0.07-0.03-0.1-0.06c-0.03-0.02-0.05-0.05-0.07-0.09c-0.02-0.03-0.03-0.07-0.03-0.11h0.74
			v-0.06c0-0.06-0.01-0.12-0.02-0.18c-0.02-0.06-0.04-0.11-0.08-0.16c-0.04-0.05-0.08-0.09-0.14-0.11
			c-0.06-0.03-0.13-0.04-0.21-0.04c-0.07,0-0.13,0.01-0.19,0.04c-0.06,0.03-0.11,0.06-0.15,0.1c-0.04,0.04-0.08,0.1-0.1,0.16
			c-0.02,0.06-0.04,0.13-0.04,0.2c0,0.07,0.01,0.14,0.03,0.2c0.02,0.06,0.05,0.11,0.09,0.16s0.09,0.08,0.15,0.1
			c0.06,0.03,0.12,0.04,0.2,0.04C35.01,83.72,35.15,83.66,35.25,83.53z M34.57,83.05c0.01-0.03,0.03-0.06,0.06-0.09
			c0.02-0.03,0.05-0.05,0.09-0.06c0.04-0.02,0.07-0.02,0.12-0.02c0.04,0,0.08,0.01,0.12,0.02c0.03,0.01,0.06,0.03,0.08,0.06
			c0.02,0.02,0.04,0.05,0.05,0.09c0.01,0.03,0.02,0.07,0.02,0.11h-0.55C34.55,83.12,34.56,83.09,34.57,83.05z"/>
		<polygon class="st2" points="11.31,85.65 11.3,85.65 10.87,84.58 10.59,84.58 10.59,85.99 10.78,85.99 10.78,84.83 10.78,84.83 
			11.24,85.99 11.37,85.99 11.83,84.83 11.84,84.83 11.84,85.99 12.02,85.99 12.02,84.58 11.75,84.58 		"/>
		<path class="st2" d="M13.11,85.17c-0.04-0.04-0.1-0.08-0.16-0.11c-0.06-0.03-0.12-0.04-0.19-0.04c-0.07,0-0.13,0.01-0.19,0.04
			c-0.06,0.03-0.11,0.06-0.16,0.11c-0.04,0.05-0.08,0.1-0.1,0.16c-0.03,0.06-0.04,0.12-0.04,0.19s0.01,0.13,0.04,0.19
			c0.03,0.06,0.06,0.11,0.1,0.16c0.04,0.04,0.1,0.08,0.16,0.11c0.06,0.03,0.12,0.04,0.19,0.04c0.07,0,0.13-0.01,0.19-0.04
			c0.06-0.03,0.11-0.06,0.16-0.11c0.04-0.04,0.08-0.1,0.1-0.16c0.03-0.06,0.04-0.12,0.04-0.19s-0.01-0.13-0.04-0.19
			C13.19,85.26,13.16,85.21,13.11,85.17z M13.05,85.65c-0.01,0.04-0.03,0.07-0.06,0.1c-0.03,0.03-0.06,0.05-0.1,0.07
			c-0.04,0.02-0.08,0.02-0.13,0.02c-0.05,0-0.09-0.01-0.13-0.02c-0.04-0.02-0.07-0.04-0.1-0.07c-0.03-0.03-0.05-0.06-0.06-0.1
			c-0.01-0.04-0.02-0.08-0.02-0.13c0-0.05,0.01-0.09,0.02-0.13c0.01-0.04,0.03-0.07,0.06-0.1c0.03-0.03,0.06-0.05,0.1-0.07
			c0.04-0.02,0.08-0.02,0.13-0.02c0.05,0,0.09,0.01,0.13,0.02c0.04,0.02,0.07,0.04,0.1,0.07c0.03,0.03,0.05,0.06,0.06,0.1
			c0.01,0.04,0.02,0.08,0.02,0.13C13.07,85.56,13.06,85.61,13.05,85.65z"/>
		<polygon class="st2" points="13.84,85.77 13.57,85.05 13.36,85.05 13.74,85.99 13.93,85.99 14.29,85.05 14.11,85.05 		"/>
		<path class="st2" d="M14.55,84.58c-0.04,0-0.07,0.01-0.09,0.04c-0.03,0.03-0.04,0.06-0.04,0.09c0,0.04,0.01,0.07,0.04,0.09
			c0.03,0.03,0.06,0.04,0.09,0.04c0.03,0,0.07-0.01,0.09-0.04c0.03-0.03,0.04-0.06,0.04-0.09c0-0.04-0.01-0.07-0.04-0.09
			C14.61,84.59,14.58,84.58,14.55,84.58z"/>
		<rect x="14.46" y="85.05" class="st2" width="0.18" height="0.94"/>
		<rect x="14.93" y="84.49" class="st2" width="0.18" height="1.5"/>
		<rect x="15.4" y="85.05" class="st2" width="0.18" height="0.94"/>
		<path class="st2" d="M15.48,84.58c-0.04,0-0.07,0.01-0.09,0.04c-0.03,0.03-0.04,0.06-0.04,0.09c0,0.04,0.01,0.07,0.04,0.09
			c0.03,0.03,0.06,0.04,0.09,0.04c0.03,0,0.07-0.01,0.09-0.04c0.03-0.03,0.04-0.06,0.04-0.09c0-0.04-0.01-0.07-0.04-0.09
			C15.55,84.59,15.52,84.58,15.48,84.58z"/>
		<path class="st2" d="M16.6,85.18L16.6,85.18c-0.04-0.05-0.08-0.09-0.14-0.12c-0.06-0.03-0.12-0.04-0.19-0.04
			c-0.07,0-0.14,0.01-0.19,0.04c-0.06,0.03-0.11,0.06-0.15,0.1c-0.04,0.04-0.07,0.1-0.09,0.16c-0.02,0.06-0.03,0.13-0.03,0.2
			c0,0.07,0.01,0.13,0.03,0.19c0.02,0.06,0.05,0.11,0.09,0.16c0.04,0.05,0.09,0.08,0.15,0.11c0.06,0.03,0.12,0.04,0.19,0.04
			c0.06,0,0.12-0.01,0.18-0.04c0.06-0.03,0.11-0.07,0.14-0.12h0v0.14h0.18v-1.5H16.6V85.18z M16.58,85.65
			c-0.01,0.04-0.03,0.07-0.06,0.1c-0.03,0.03-0.06,0.05-0.1,0.07c-0.04,0.02-0.08,0.02-0.13,0.02c-0.05,0-0.09-0.01-0.13-0.02
			c-0.04-0.02-0.07-0.04-0.1-0.07c-0.03-0.03-0.05-0.06-0.06-0.1c-0.01-0.04-0.02-0.08-0.02-0.13c0-0.05,0.01-0.09,0.02-0.13
			c0.01-0.04,0.03-0.07,0.06-0.1c0.03-0.03,0.06-0.05,0.1-0.07c0.04-0.02,0.08-0.02,0.13-0.02c0.05,0,0.09,0.01,0.13,0.02
			c0.04,0.02,0.07,0.04,0.1,0.07c0.03,0.03,0.05,0.06,0.06,0.1c0.01,0.04,0.02,0.08,0.02,0.13C16.6,85.56,16.59,85.61,16.58,85.65z"
			/>
		<path class="st2" d="M17.79,85.82v-0.48c0-0.04-0.01-0.08-0.02-0.12c-0.01-0.04-0.04-0.07-0.07-0.1
			c-0.03-0.03-0.07-0.05-0.12-0.07c-0.05-0.02-0.11-0.03-0.17-0.03c-0.06,0-0.13,0.01-0.19,0.03c-0.06,0.02-0.12,0.06-0.17,0.1
			l0.1,0.11c0.02-0.01,0.03-0.02,0.05-0.04s0.04-0.02,0.06-0.03c0.02-0.01,0.04-0.02,0.07-0.02c0.03-0.01,0.05-0.01,0.09-0.01
			c0.04,0,0.07,0.01,0.1,0.02c0.03,0.01,0.05,0.03,0.07,0.05c0.02,0.02,0.03,0.04,0.04,0.06c0.01,0.02,0.01,0.05,0.01,0.07v0.04
			H17.5c-0.07,0-0.14,0.01-0.2,0.02c-0.06,0.01-0.12,0.03-0.16,0.06c-0.05,0.03-0.08,0.06-0.11,0.1c-0.03,0.04-0.04,0.09-0.04,0.15
			c0,0.05,0.01,0.09,0.03,0.12c0.02,0.04,0.04,0.06,0.07,0.09c0.03,0.02,0.06,0.04,0.1,0.05c0.04,0.01,0.08,0.02,0.12,0.02
			c0.07,0,0.13-0.01,0.18-0.04c0.05-0.03,0.1-0.07,0.14-0.13h0c0,0.05,0,0.1,0.01,0.14h0.16c0-0.03,0-0.05-0.01-0.08
			C17.79,85.88,17.79,85.85,17.79,85.82z M17.63,85.59c0,0.03,0,0.06-0.01,0.1c-0.01,0.03-0.02,0.06-0.04,0.09
			c-0.02,0.03-0.05,0.05-0.08,0.06c-0.03,0.02-0.07,0.02-0.12,0.02c-0.06,0-0.11-0.01-0.14-0.04c-0.04-0.02-0.05-0.06-0.05-0.12
			c0-0.04,0.01-0.07,0.03-0.09c0.02-0.02,0.05-0.04,0.09-0.06c0.04-0.01,0.08-0.02,0.12-0.03c0.04,0,0.09-0.01,0.13-0.01h0.09V85.59
			z"/>
		<path class="st2" d="M18.8,85.18L18.8,85.18c-0.04-0.05-0.08-0.09-0.14-0.12c-0.06-0.03-0.12-0.04-0.19-0.04
			c-0.07,0-0.14,0.01-0.19,0.04c-0.06,0.03-0.11,0.06-0.15,0.1c-0.04,0.04-0.07,0.1-0.09,0.16c-0.02,0.06-0.03,0.13-0.03,0.2
			c0,0.07,0.01,0.13,0.03,0.19c0.02,0.06,0.05,0.11,0.09,0.16c0.04,0.05,0.09,0.08,0.15,0.11c0.06,0.03,0.12,0.04,0.19,0.04
			c0.06,0,0.12-0.01,0.18-0.04c0.06-0.03,0.11-0.07,0.14-0.12h0v0.14h0.18v-1.5H18.8V85.18z M18.78,85.65
			c-0.01,0.04-0.03,0.07-0.06,0.1c-0.03,0.03-0.06,0.05-0.1,0.07c-0.04,0.02-0.08,0.02-0.13,0.02c-0.05,0-0.09-0.01-0.13-0.02
			c-0.04-0.02-0.07-0.04-0.1-0.07c-0.03-0.03-0.05-0.06-0.06-0.1c-0.01-0.04-0.02-0.08-0.02-0.13c0-0.05,0.01-0.09,0.02-0.13
			c0.01-0.04,0.03-0.07,0.06-0.1c0.03-0.03,0.06-0.05,0.1-0.07c0.04-0.02,0.08-0.02,0.13-0.02c0.05,0,0.09,0.01,0.13,0.02
			c0.04,0.02,0.07,0.04,0.1,0.07c0.03,0.03,0.05,0.06,0.06,0.1c0.01,0.04,0.02,0.08,0.02,0.13C18.8,85.56,18.79,85.61,18.78,85.65z"
			/>
		<path class="st2" d="M20.25,84.58l-0.61,1.41h0.22L20,85.64h0.66l0.14,0.35h0.22l-0.59-1.41H20.25z M20.07,85.47l0.26-0.65h0
			l0.26,0.65H20.07z"/>
		<path class="st2" d="M22.47,85.15c-0.03-0.04-0.06-0.07-0.11-0.09c-0.05-0.02-0.1-0.04-0.18-0.04c-0.06,0-0.11,0.01-0.17,0.04
			c-0.05,0.03-0.1,0.07-0.13,0.13c-0.03-0.06-0.07-0.1-0.11-0.13c-0.05-0.03-0.1-0.04-0.17-0.04c-0.04,0-0.08,0.01-0.11,0.02
			c-0.03,0.01-0.06,0.03-0.09,0.05c-0.03,0.02-0.05,0.04-0.06,0.06c-0.02,0.02-0.03,0.04-0.03,0.05h0v-0.15h-0.16v0.94h0.18V85.5
			c0-0.05,0.01-0.1,0.02-0.14c0.01-0.04,0.03-0.07,0.05-0.1c0.02-0.03,0.05-0.04,0.08-0.06c0.03-0.01,0.06-0.02,0.09-0.02
			c0.04,0,0.08,0.01,0.1,0.02c0.03,0.02,0.04,0.04,0.06,0.06c0.01,0.03,0.02,0.06,0.03,0.1c0,0.04,0.01,0.08,0.01,0.12v0.49h0.18
			v-0.51c0-0.08,0.02-0.15,0.05-0.2c0.04-0.05,0.1-0.08,0.18-0.08c0.04,0,0.08,0.01,0.1,0.02c0.03,0.02,0.05,0.04,0.06,0.06
			c0.01,0.03,0.02,0.05,0.03,0.09c0,0.03,0.01,0.07,0.01,0.1v0.52h0.18v-0.55c0-0.05,0-0.1-0.01-0.15
			C22.52,85.24,22.5,85.19,22.47,85.15z"/>
		<path class="st2" d="M23.56,85.82v-0.48c0-0.04-0.01-0.08-0.02-0.12c-0.01-0.04-0.04-0.07-0.07-0.1
			c-0.03-0.03-0.07-0.05-0.12-0.07c-0.05-0.02-0.11-0.03-0.17-0.03c-0.06,0-0.13,0.01-0.19,0.03c-0.06,0.02-0.12,0.06-0.17,0.1
			l0.1,0.11c0.02-0.01,0.03-0.02,0.05-0.04s0.04-0.02,0.06-0.03c0.02-0.01,0.04-0.02,0.07-0.02c0.03-0.01,0.05-0.01,0.09-0.01
			c0.04,0,0.07,0.01,0.1,0.02c0.03,0.01,0.05,0.03,0.07,0.05c0.02,0.02,0.03,0.04,0.04,0.06c0.01,0.02,0.01,0.05,0.01,0.07v0.04
			h-0.13c-0.07,0-0.14,0.01-0.2,0.02c-0.06,0.01-0.12,0.03-0.16,0.06c-0.05,0.03-0.08,0.06-0.11,0.1c-0.03,0.04-0.04,0.09-0.04,0.15
			c0,0.05,0.01,0.09,0.03,0.12c0.02,0.04,0.04,0.06,0.07,0.09c0.03,0.02,0.06,0.04,0.1,0.05c0.04,0.01,0.08,0.02,0.12,0.02
			c0.07,0,0.13-0.01,0.18-0.04c0.05-0.03,0.1-0.07,0.14-0.13h0c0,0.05,0,0.1,0.01,0.14h0.16c0-0.03,0-0.05-0.01-0.08
			C23.56,85.88,23.56,85.85,23.56,85.82z M23.4,85.59c0,0.03,0,0.06-0.01,0.1c-0.01,0.03-0.02,0.06-0.04,0.09
			c-0.02,0.03-0.05,0.05-0.08,0.06c-0.03,0.02-0.07,0.02-0.12,0.02c-0.06,0-0.11-0.01-0.14-0.04c-0.04-0.02-0.05-0.06-0.05-0.12
			c0-0.04,0.01-0.07,0.03-0.09c0.02-0.02,0.05-0.04,0.09-0.06c0.04-0.01,0.08-0.02,0.12-0.03s0.09-0.01,0.13-0.01h0.09V85.59z"/>
		<path class="st2" d="M24.66,85.16c-0.04-0.04-0.09-0.08-0.15-0.1c-0.06-0.03-0.12-0.04-0.19-0.04c-0.07,0-0.13,0.01-0.19,0.04
			c-0.06,0.03-0.1,0.07-0.13,0.12h0v-0.7h-0.18v1.5h0.18v-0.14h0c0.03,0.05,0.08,0.09,0.14,0.12c0.06,0.03,0.12,0.04,0.18,0.04
			c0.07,0,0.14-0.01,0.19-0.04c0.06-0.03,0.11-0.06,0.15-0.11c0.04-0.05,0.07-0.1,0.09-0.16c0.02-0.06,0.03-0.12,0.03-0.19
			c0-0.07-0.01-0.14-0.03-0.2C24.73,85.26,24.7,85.21,24.66,85.16z M24.58,85.65c-0.01,0.04-0.03,0.07-0.06,0.1s-0.06,0.05-0.1,0.07
			c-0.04,0.02-0.08,0.02-0.13,0.02c-0.05,0-0.09-0.01-0.13-0.02c-0.04-0.02-0.07-0.04-0.1-0.07c-0.03-0.03-0.05-0.06-0.06-0.1
			c-0.01-0.04-0.02-0.08-0.02-0.13c0-0.05,0.01-0.09,0.02-0.13c0.01-0.04,0.03-0.07,0.06-0.1c0.03-0.03,0.06-0.05,0.1-0.07
			c0.04-0.02,0.08-0.02,0.13-0.02c0.05,0,0.09,0.01,0.13,0.02c0.04,0.02,0.07,0.04,0.1,0.07s0.05,0.06,0.06,0.1
			c0.01,0.04,0.02,0.08,0.02,0.13C24.6,85.56,24.59,85.61,24.58,85.65z"/>
		<rect x="25.02" y="84.49" class="st2" width="0.18" height="1.5"/>
		<path class="st2" d="M26.24,85.18c-0.04-0.05-0.08-0.09-0.14-0.11c-0.06-0.03-0.13-0.04-0.21-0.04c-0.07,0-0.13,0.01-0.19,0.04
			c-0.06,0.03-0.11,0.06-0.15,0.1c-0.04,0.04-0.08,0.1-0.1,0.16c-0.02,0.06-0.04,0.13-0.04,0.2c0,0.07,0.01,0.14,0.03,0.2
			c0.02,0.06,0.05,0.11,0.09,0.16s0.09,0.08,0.15,0.1c0.06,0.03,0.12,0.04,0.2,0.04c0.18,0,0.31-0.06,0.41-0.19l-0.13-0.1
			c-0.03,0.04-0.07,0.08-0.11,0.1c-0.04,0.03-0.09,0.04-0.14,0.04c-0.04,0-0.08-0.01-0.12-0.02c-0.04-0.01-0.07-0.03-0.1-0.06
			c-0.03-0.02-0.05-0.05-0.07-0.09c-0.02-0.03-0.03-0.07-0.03-0.11h0.74v-0.06c0-0.06-0.01-0.12-0.02-0.18
			C26.3,85.28,26.28,85.23,26.24,85.18z M25.6,85.44c0-0.03,0.01-0.06,0.02-0.1c0.01-0.03,0.03-0.06,0.06-0.09
			c0.02-0.03,0.05-0.05,0.09-0.06c0.04-0.02,0.07-0.02,0.12-0.02c0.04,0,0.08,0.01,0.12,0.02c0.03,0.01,0.06,0.03,0.08,0.06
			c0.02,0.02,0.04,0.05,0.05,0.09c0.01,0.03,0.02,0.07,0.02,0.11H25.6z"/>
		<path class="st2" d="M27.46,85.78L27.46,85.78l-0.28-0.73h-0.2l0.38,0.95l-0.06,0.15c-0.01,0.02-0.02,0.05-0.03,0.06
			c-0.01,0.02-0.02,0.03-0.03,0.05c-0.01,0.01-0.03,0.02-0.05,0.03c-0.02,0.01-0.04,0.01-0.07,0.01c-0.03,0-0.07-0.01-0.1-0.02
			l-0.02,0.16c0.02,0.01,0.05,0.02,0.08,0.02c0.03,0,0.05,0.01,0.08,0.01c0.05,0,0.09-0.01,0.12-0.02s0.06-0.03,0.08-0.06
			c0.02-0.02,0.04-0.05,0.06-0.09c0.02-0.03,0.03-0.07,0.05-0.11l0.44-1.14h-0.19L27.46,85.78z"/>
		<path class="st2" d="M29.28,85.27c-0.05-0.03-0.1-0.05-0.16-0.07c-0.06-0.02-0.11-0.03-0.16-0.05c-0.05-0.02-0.09-0.05-0.13-0.08
			c-0.03-0.03-0.05-0.08-0.05-0.14c0-0.02,0-0.04,0.01-0.07c0.01-0.03,0.02-0.05,0.04-0.07c0.02-0.02,0.05-0.04,0.08-0.05
			c0.03-0.01,0.08-0.02,0.13-0.02c0.05,0,0.1,0.01,0.15,0.03c0.04,0.02,0.08,0.05,0.1,0.09l0.15-0.14
			c-0.05-0.06-0.11-0.11-0.18-0.13c-0.07-0.02-0.14-0.03-0.22-0.03c-0.08,0-0.15,0.01-0.21,0.04c-0.06,0.03-0.11,0.06-0.14,0.1
			c-0.04,0.04-0.07,0.08-0.08,0.13c-0.02,0.05-0.03,0.09-0.03,0.13c0,0.09,0.02,0.16,0.05,0.22c0.03,0.05,0.08,0.1,0.13,0.13
			c0.05,0.03,0.1,0.06,0.16,0.07c0.06,0.02,0.11,0.04,0.16,0.06c0.05,0.02,0.09,0.04,0.13,0.07c0.03,0.03,0.05,0.07,0.05,0.12
			c0,0.04-0.01,0.07-0.03,0.1c-0.02,0.03-0.04,0.05-0.07,0.07s-0.06,0.03-0.09,0.04c-0.03,0.01-0.06,0.01-0.1,0.01
			c-0.06,0-0.11-0.01-0.16-0.04c-0.05-0.02-0.1-0.06-0.13-0.11l-0.15,0.14c0.05,0.07,0.11,0.12,0.19,0.15
			c0.08,0.03,0.16,0.05,0.25,0.05c0.07,0,0.13-0.01,0.19-0.03c0.06-0.02,0.11-0.05,0.15-0.09c0.04-0.04,0.08-0.08,0.1-0.14
			c0.03-0.05,0.04-0.12,0.04-0.18c0-0.08-0.02-0.15-0.05-0.2C29.37,85.34,29.33,85.3,29.28,85.27z"/>
		<path class="st2" d="M30.48,85.17c-0.04-0.04-0.1-0.08-0.16-0.11c-0.06-0.03-0.12-0.04-0.19-0.04c-0.07,0-0.13,0.01-0.19,0.04
			c-0.06,0.03-0.11,0.06-0.16,0.11c-0.04,0.05-0.08,0.1-0.1,0.16c-0.03,0.06-0.04,0.12-0.04,0.19s0.01,0.13,0.04,0.19
			c0.03,0.06,0.06,0.11,0.1,0.16c0.04,0.04,0.1,0.08,0.16,0.11c0.06,0.03,0.12,0.04,0.19,0.04c0.07,0,0.13-0.01,0.19-0.04
			c0.06-0.03,0.11-0.06,0.16-0.11c0.04-0.04,0.08-0.1,0.1-0.16c0.03-0.06,0.04-0.12,0.04-0.19s-0.01-0.13-0.04-0.19
			C30.56,85.26,30.53,85.21,30.48,85.17z M30.42,85.65c-0.01,0.04-0.03,0.07-0.06,0.1c-0.03,0.03-0.06,0.05-0.1,0.07
			c-0.04,0.02-0.08,0.02-0.13,0.02c-0.05,0-0.09-0.01-0.13-0.02c-0.04-0.02-0.07-0.04-0.1-0.07c-0.03-0.03-0.05-0.06-0.06-0.1
			s-0.02-0.08-0.02-0.13c0-0.05,0.01-0.09,0.02-0.13c0.01-0.04,0.03-0.07,0.06-0.1c0.03-0.03,0.06-0.05,0.1-0.07
			c0.04-0.02,0.08-0.02,0.13-0.02c0.05,0,0.09,0.01,0.13,0.02c0.04,0.02,0.07,0.04,0.1,0.07c0.03,0.03,0.05,0.06,0.06,0.1
			c0.01,0.04,0.02,0.08,0.02,0.13C30.44,85.56,30.43,85.61,30.42,85.65z"/>
		<path class="st2" d="M31.42,85.53c-0.02-0.02-0.05-0.04-0.09-0.05s-0.07-0.02-0.11-0.03c-0.02,0-0.04-0.01-0.07-0.01
			c-0.03-0.01-0.05-0.01-0.08-0.02s-0.04-0.02-0.06-0.04c-0.02-0.02-0.03-0.04-0.03-0.07c0-0.03,0.02-0.06,0.05-0.08
			c0.03-0.02,0.07-0.03,0.11-0.03c0.04,0,0.08,0.01,0.11,0.03c0.03,0.02,0.06,0.04,0.08,0.07l0.14-0.11
			c-0.03-0.06-0.08-0.1-0.14-0.12s-0.12-0.04-0.18-0.04c-0.04,0-0.09,0.01-0.13,0.02c-0.04,0.01-0.08,0.03-0.11,0.05
			c-0.03,0.02-0.06,0.05-0.08,0.09c-0.02,0.04-0.03,0.08-0.03,0.13c0,0.05,0.01,0.08,0.02,0.11c0.02,0.03,0.04,0.06,0.06,0.08
			c0.03,0.02,0.06,0.04,0.09,0.05c0.03,0.01,0.07,0.02,0.11,0.03c0.02,0,0.04,0.01,0.07,0.01c0.03,0.01,0.05,0.01,0.07,0.02
			c0.02,0.01,0.04,0.02,0.06,0.04c0.02,0.02,0.02,0.04,0.02,0.07c0,0.02-0.01,0.04-0.02,0.05c-0.01,0.02-0.03,0.03-0.04,0.04
			c-0.02,0.01-0.04,0.02-0.06,0.02c-0.02,0-0.05,0.01-0.07,0.01c-0.05,0-0.09-0.01-0.13-0.03c-0.03-0.02-0.07-0.05-0.1-0.08
			l-0.13,0.11c0.05,0.06,0.1,0.11,0.15,0.13c0.06,0.02,0.12,0.04,0.2,0.04c0.05,0,0.09-0.01,0.14-0.02
			c0.04-0.01,0.08-0.03,0.12-0.05c0.03-0.02,0.06-0.05,0.09-0.09c0.02-0.04,0.03-0.08,0.03-0.14c0-0.04-0.01-0.08-0.02-0.11
			C31.46,85.57,31.44,85.55,31.42,85.53z"/>
		<path class="st2" d="M32.08,85.84c-0.03,0-0.06-0.01-0.08-0.02c-0.02-0.01-0.03-0.03-0.04-0.05c-0.01-0.02-0.01-0.04-0.01-0.07
			c0-0.03,0-0.05,0-0.08V85.2h0.25v-0.15h-0.25v-0.26h-0.18v0.26h-0.2v0.15h0.2v0.49c0,0.04,0,0.08,0,0.11
			c0,0.04,0.01,0.07,0.03,0.1c0.02,0.03,0.04,0.06,0.08,0.07c0.04,0.02,0.09,0.03,0.16,0.03c0.02,0,0.04,0,0.08-0.01
			c0.03,0,0.06-0.01,0.08-0.02v-0.16c-0.02,0.01-0.04,0.02-0.06,0.02C32.13,85.84,32.1,85.84,32.08,85.84z"/>
		<path class="st2" d="M33.2,85.18c-0.04-0.05-0.08-0.09-0.14-0.11c-0.06-0.03-0.13-0.04-0.21-0.04c-0.07,0-0.13,0.01-0.19,0.04
			c-0.06,0.03-0.11,0.06-0.15,0.1c-0.04,0.04-0.08,0.1-0.1,0.16c-0.02,0.06-0.04,0.13-0.04,0.2c0,0.07,0.01,0.14,0.03,0.2
			c0.02,0.06,0.05,0.11,0.09,0.16s0.09,0.08,0.15,0.1c0.06,0.03,0.12,0.04,0.2,0.04c0.18,0,0.31-0.06,0.41-0.19l-0.13-0.1
			c-0.03,0.04-0.07,0.08-0.11,0.1c-0.04,0.03-0.09,0.04-0.14,0.04c-0.04,0-0.08-0.01-0.12-0.02c-0.04-0.01-0.07-0.03-0.1-0.06
			c-0.03-0.02-0.05-0.05-0.07-0.09c-0.02-0.03-0.03-0.07-0.03-0.11h0.74v-0.06c0-0.06-0.01-0.12-0.02-0.18S33.23,85.23,33.2,85.18z
			 M32.56,85.44c0-0.03,0.01-0.06,0.02-0.1c0.01-0.03,0.03-0.06,0.06-0.09c0.02-0.03,0.05-0.05,0.09-0.06
			c0.04-0.02,0.07-0.02,0.12-0.02c0.04,0,0.08,0.01,0.12,0.02c0.03,0.01,0.06,0.03,0.08,0.06c0.02,0.02,0.04,0.05,0.05,0.09
			c0.01,0.03,0.02,0.07,0.02,0.11H32.56z"/>
		<path class="st2" d="M34.23,85.11c-0.03-0.03-0.07-0.05-0.11-0.06c-0.04-0.01-0.08-0.02-0.13-0.02c-0.07,0-0.13,0.02-0.19,0.05
			c-0.05,0.03-0.09,0.07-0.11,0.12h0v-0.14h-0.18v0.94h0.18V85.5c0-0.05,0.01-0.1,0.02-0.14c0.01-0.04,0.03-0.07,0.05-0.1
			c0.02-0.03,0.05-0.04,0.08-0.06c0.03-0.01,0.06-0.02,0.1-0.02c0.03,0,0.05,0,0.08,0.01c0.03,0.01,0.05,0.02,0.07,0.04
			c0.02,0.02,0.04,0.04,0.05,0.08c0.01,0.03,0.02,0.07,0.02,0.11v0.56h0.18v-0.61c0-0.06-0.01-0.12-0.03-0.16
			C34.28,85.17,34.26,85.14,34.23,85.11z"/>
		<path class="st2" d="M34.69,84.58c-0.04,0-0.07,0.01-0.09,0.04c-0.03,0.03-0.04,0.06-0.04,0.09c0,0.04,0.01,0.07,0.04,0.09
			c0.03,0.03,0.06,0.04,0.09,0.04c0.03,0,0.07-0.01,0.09-0.04c0.03-0.03,0.04-0.06,0.04-0.09c0-0.04-0.01-0.07-0.04-0.09
			C34.76,84.59,34.73,84.58,34.69,84.58z"/>
		<rect x="34.61" y="85.05" class="st2" width="0.18" height="0.94"/>
		<path class="st2" d="M35.9,85.16c-0.04-0.04-0.09-0.08-0.15-0.1c-0.06-0.03-0.12-0.04-0.19-0.04c-0.07,0-0.13,0.01-0.19,0.04
			c-0.06,0.03-0.1,0.07-0.13,0.12h0v-0.7h-0.18v1.5h0.18v-0.14h0c0.03,0.05,0.08,0.09,0.14,0.12c0.06,0.03,0.12,0.04,0.18,0.04
			c0.07,0,0.14-0.01,0.19-0.04c0.06-0.03,0.11-0.06,0.15-0.11c0.04-0.05,0.07-0.1,0.09-0.16c0.02-0.06,0.03-0.12,0.03-0.19
			c0-0.07-0.01-0.14-0.03-0.2C35.97,85.26,35.94,85.21,35.9,85.16z M35.82,85.65c-0.01,0.04-0.03,0.07-0.06,0.1s-0.06,0.05-0.1,0.07
			c-0.04,0.02-0.08,0.02-0.13,0.02c-0.05,0-0.09-0.01-0.13-0.02c-0.04-0.02-0.07-0.04-0.1-0.07c-0.03-0.03-0.05-0.06-0.06-0.1
			c-0.01-0.04-0.02-0.08-0.02-0.13c0-0.05,0.01-0.09,0.02-0.13c0.01-0.04,0.03-0.07,0.06-0.1c0.03-0.03,0.06-0.05,0.1-0.07
			c0.04-0.02,0.08-0.02,0.13-0.02c0.05,0,0.09,0.01,0.13,0.02c0.04,0.02,0.07,0.04,0.1,0.07s0.05,0.06,0.06,0.1
			c0.01,0.04,0.02,0.08,0.02,0.13C35.84,85.56,35.83,85.61,35.82,85.65z"/>
		<rect x="36.26" y="84.49" class="st2" width="0.18" height="1.5"/>
		<path class="st2" d="M37.59,85.52c0-0.06-0.01-0.12-0.02-0.18c-0.02-0.06-0.04-0.11-0.08-0.16c-0.04-0.05-0.08-0.09-0.14-0.11
			c-0.06-0.03-0.13-0.04-0.21-0.04c-0.07,0-0.13,0.01-0.19,0.04c-0.06,0.03-0.11,0.06-0.15,0.1c-0.04,0.04-0.08,0.1-0.1,0.16
			c-0.02,0.06-0.04,0.13-0.04,0.2c0,0.07,0.01,0.14,0.03,0.2c0.02,0.06,0.05,0.11,0.09,0.16s0.09,0.08,0.15,0.1
			c0.06,0.03,0.12,0.04,0.2,0.04c0.18,0,0.31-0.06,0.41-0.19l-0.13-0.1c-0.03,0.04-0.07,0.08-0.11,0.1
			c-0.04,0.03-0.09,0.04-0.14,0.04c-0.04,0-0.08-0.01-0.12-0.02c-0.04-0.01-0.07-0.03-0.1-0.06c-0.03-0.02-0.05-0.05-0.07-0.09
			c-0.02-0.03-0.03-0.07-0.03-0.11h0.74V85.52z M36.85,85.44c0-0.03,0.01-0.06,0.02-0.1c0.01-0.03,0.03-0.06,0.06-0.09
			c0.02-0.03,0.05-0.05,0.09-0.06c0.04-0.02,0.07-0.02,0.12-0.02c0.04,0,0.08,0.01,0.12,0.02c0.03,0.01,0.06,0.03,0.08,0.06
			c0.02,0.02,0.04,0.05,0.05,0.09c0.01,0.03,0.02,0.07,0.02,0.11H36.85z"/>
		<path class="st2" d="M21.67,72.95c1.14,0,2.17-0.65,2.68-1.69c0.07-0.14,0.05-0.31-0.06-0.43l-1.72-1.86c0,0-0.01-0.01-0.01-0.01
			c-0.27-0.27-0.63-0.41-1.02-0.37c-0.63,0.06-1.13,0.59-1.15,1.24c-0.03,0.74,0.55,1.36,1.27,1.36c0.26,0,0.54-0.08,0.77-0.23
			c0.08-0.05,0.1-0.17,0.03-0.24l-0.3-0.33c-0.05-0.05-0.12-0.06-0.19-0.03c-0.11,0.05-0.22,0.08-0.32,0.08
			c-0.33,0-0.59-0.31-0.52-0.66c0.04-0.21,0.21-0.38,0.42-0.42c0.18-0.03,0.35,0.02,0.48,0.15l1.53,1.65
			c-0.47,0.73-1.3,1.14-2.19,1.03c-1.03-0.13-1.85-1-1.96-2.05c-0.14-1.38,0.93-2.55,2.25-2.55c0.4,0,0.8,0.11,1.14,0.32
			c0.07,0.04,0.16,0.02,0.21-0.05l0.24-0.36c0.05-0.08,0.03-0.18-0.05-0.23c-0.53-0.33-1.15-0.48-1.79-0.42
			c-1.5,0.12-2.69,1.39-2.75,2.93C18.6,71.51,19.98,72.95,21.67,72.95z"/>
		<path class="st2" d="M25.6,70.8C25.6,70.8,25.6,70.8,25.6,70.8c0.28,0.28,0.64,0.42,1.03,0.38c0.63-0.06,1.13-0.59,1.15-1.24
			c0.03-0.74-0.55-1.36-1.27-1.36c-0.26,0-0.54,0.08-0.77,0.23c-0.08,0.05-0.1,0.17-0.03,0.24l0.3,0.33
			c0.05,0.05,0.12,0.06,0.19,0.03c0.11-0.05,0.22-0.08,0.32-0.08c0.33,0,0.59,0.31,0.52,0.66c-0.04,0.21-0.21,0.38-0.42,0.42
			c-0.18,0.03-0.35-0.02-0.48-0.15l-1.53-1.65c0.47-0.73,1.3-1.14,2.19-1.03c1.03,0.13,1.85,1,1.96,2.05
			c0.14,1.38-0.93,2.55-2.25,2.55c-0.4,0-0.8-0.11-1.14-0.32c-0.07-0.04-0.16-0.02-0.21,0.05l-0.24,0.36
			c-0.05,0.08-0.03,0.18,0.05,0.23c0.53,0.33,1.15,0.48,1.79,0.42c1.5-0.12,2.69-1.39,2.75-2.93c0.07-1.75-1.3-3.19-3-3.19
			c-1.14,0-2.17,0.65-2.68,1.69c-0.07,0.14-0.05,0.31,0.06,0.43L25.6,70.8z"/>
	</g>
</g>
</svg>
